<?xml version="1.0" encoding="UTF-8" standalone="no"?>
<!-- Generator: Adobe Illustrator 14.0.0, SVG Export Plug-In . SVG Version: 6.00 Build 43363)  -->

<svg
   xmlns:dc="http://purl.org/dc/elements/1.1/"
   xmlns:cc="http://creativecommons.org/ns#"
   xmlns:rdf="http://www.w3.org/1999/02/22-rdf-syntax-ns#"
   xmlns:svg="http://www.w3.org/2000/svg"
   xmlns="http://www.w3.org/2000/svg"
   xmlns:xlink="http://www.w3.org/1999/xlink"
   xmlns:sodipodi="http://sodipodi.sourceforge.net/DTD/sodipodi-0.dtd"
   xmlns:inkscape="http://www.inkscape.org/namespaces/inkscape"
   version="1.1"
   id="Capa_1"
   x="0px"
   y="0px"
   width="225.42001"
   height="75.849007"
   viewBox="0 0 225.42001 75.849003"
   enable-background="new 0 0 841.89 595.28"
   xml:space="preserve"
   inkscape:version="0.48.3.1 r9886"
   sodipodi:docname="agpl.svg"
   sodipodi:version="0.32"
   inkscape:output_extension="org.inkscape.output.svg.inkscape"><metadata
   id="metadata507"><rdf:RDF><cc:Work
       rdf:about=""><dc:format>image/svg+xml</dc:format><dc:type
         rdf:resource="http://purl.org/dc/dcmitype/StillImage" /><dc:title></dc:title><cc:license
         rdf:resource="http://creativecommons.org/licenses/by/3.0/" /></cc:Work><cc:License
       rdf:about="http://creativecommons.org/licenses/by/3.0/"><cc:permits
         rdf:resource="http://creativecommons.org/ns#Reproduction" /><cc:permits
         rdf:resource="http://creativecommons.org/ns#Distribution" /><cc:requires
         rdf:resource="http://creativecommons.org/ns#Notice" /><cc:requires
         rdf:resource="http://creativecommons.org/ns#Attribution" /><cc:permits
         rdf:resource="http://creativecommons.org/ns#DerivativeWorks" /></cc:License></rdf:RDF></metadata><defs
   id="defs505"><linearGradient
   id="linearGradient4471"><stop
     style="stop-color:#696a6b;stop-opacity:1;"
     offset="0"
     id="stop4473" /><stop
     style="stop-color:#9b9c9e;stop-opacity:1;"
     offset="1"
     id="stop4475" /></linearGradient><linearGradient
   id="linearGradient4455"><stop
     style="stop-color:#696a6b;stop-opacity:1;"
     offset="0"
     id="stop4457" /><stop
     style="stop-color:#9b9c9e;stop-opacity:1;"
     offset="1"
     id="stop4459" /></linearGradient><linearGradient
   id="linearGradient4260"><stop
     style="stop-color:#911d21;stop-opacity:1;"
     offset="0"
     id="stop4262" /><stop
     style="stop-color:#c4282d;stop-opacity:1;"
     offset="1"
     id="stop4264" /></linearGradient><linearGradient
   id="linearGradient4235"><stop
     style="stop-color:#592350;stop-opacity:1;"
     offset="0"
     id="stop4237" /><stop
     style="stop-color:#742e68;stop-opacity:1;"
     offset="1"
     id="stop4239" /></linearGradient><linearGradient
   id="linearGradient4197"><stop
     style="stop-color:#16813d;stop-opacity:1;"
     offset="0"
     id="stop4199" /><stop
     style="stop-color:#0d4f25;stop-opacity:1;"
     offset="1"
     id="stop4201" /></linearGradient><linearGradient
   id="linearGradient3598"><stop
     style="stop-color:#742e68;stop-opacity:1;"
     offset="0"
     id="stop3600" /><stop
     style="stop-color:#481c40;stop-opacity:1;"
     offset="1"
     id="stop3602" /></linearGradient><linearGradient
   inkscape:collect="always"
   id="linearGradient3632"><stop
     style="stop-color:#ffffff;stop-opacity:1;"
     offset="0"
     id="stop3634" /><stop
     style="stop-color:#ffffff;stop-opacity:0;"
     offset="1"
     id="stop3636" /></linearGradient><linearGradient
   inkscape:collect="always"
   id="linearGradient3584"><stop
     style="stop-color:#ffffff;stop-opacity:1;"
     offset="0"
     id="stop3586" /><stop
     style="stop-color:#ffffff;stop-opacity:0;"
     offset="1"
     id="stop3588" /></linearGradient><linearGradient
   inkscape:collect="always"
   id="linearGradient3542"><stop
     style="stop-color:#ffffff;stop-opacity:1;"
     offset="0"
     id="stop3544" /><stop
     style="stop-color:#ffffff;stop-opacity:0;"
     offset="1"
     id="stop3546" /></linearGradient><linearGradient
   id="linearGradient3536"><stop
     style="stop-color:#ffffff;stop-opacity:1"
     offset="0"
     id="stop3538" /><stop
     style="stop-color:#ffffff;stop-opacity:0"
     offset="1"
     id="stop3540" /></linearGradient><linearGradient
   id="linearGradient3530"><stop
     style="stop-color:#ffffff;stop-opacity:1"
     offset="0"
     id="stop3532" /><stop
     style="stop-color:#7f1a1d;stop-opacity:1;"
     offset="1"
     id="stop3534" /></linearGradient><linearGradient
   id="linearGradient3483"><stop
     id="stop3485"
     offset="0"
     style="stop-color:#c4282d;stop-opacity:1;" /><stop
     id="stop3487"
     offset="1"
     style="stop-color:#7f1a1d;stop-opacity:1;" /></linearGradient><linearGradient
   id="linearGradient3467"><stop
     style="stop-color:#000000;stop-opacity:1;"
     offset="0"
     id="stop3469" /><stop
     style="stop-color:#000000;stop-opacity:0;"
     offset="1"
     id="stop3471" /></linearGradient><inkscape:perspective
   sodipodi:type="inkscape:persp3d"
   inkscape:vp_x="0 : 297.64001 : 1"
   inkscape:vp_y="0 : 1000 : 0"
   inkscape:vp_z="841.89001 : 297.64001 : 1"
   inkscape:persp3d-origin="420.94501 : 198.42668 : 1"
   id="perspective509" />
	
	
	
	
<linearGradient
   inkscape:collect="always"
   xlink:href="#linearGradient3483"
   id="linearGradient3481"
   x1="193.67853"
   y1="227.42769"
   x2="192.737"
   y2="164.42589"
   gradientUnits="userSpaceOnUse" /><linearGradient
   inkscape:collect="always"
   xlink:href="#linearGradient3542"
   id="linearGradient3548"
   x1="223.70312"
   y1="167.78789"
   x2="223.70312"
   y2="224.78125"
   gradientUnits="userSpaceOnUse" />
		
		
	<linearGradient
   inkscape:collect="always"
   xlink:href="#linearGradient3584"
   id="linearGradient3590"
   x1="234.03793"
   y1="165.15395"
   x2="234.35178"
   y2="210.66147"
   gradientUnits="userSpaceOnUse" />
		
	<filter
   inkscape:collect="always"
   id="filter3676"
   x="-0.041724954"
   width="1.0834498"
   y="-0.5814625"
   height="2.162925"
   color-interpolation-filters="sRGB"><feGaussianBlur
     inkscape:collect="always"
     stdDeviation="1.9987774"
     id="feGaussianBlur3678" /></filter>
		
	<filter
   inkscape:collect="always"
   id="filter3797"
   x="-0.1602831"
   width="1.3205662"
   y="-0.47746989"
   height="1.9549398"
   color-interpolation-filters="sRGB"><feGaussianBlur
     inkscape:collect="always"
     stdDeviation="2.0640625"
     id="feGaussianBlur3799" /></filter><linearGradient
   inkscape:collect="always"
   xlink:href="#linearGradient3483"
   id="linearGradient3947"
   gradientUnits="userSpaceOnUse"
   x1="193.67853"
   y1="227.42769"
   x2="192.737"
   y2="164.42589" /><filter
   inkscape:collect="always"
   id="filter3999"
   x="-0.081487082"
   width="1.1629742"
   y="-0.10296158"
   height="1.2059232"
   color-interpolation-filters="sRGB"><feGaussianBlur
     inkscape:collect="always"
     stdDeviation="0.99465172"
     id="feGaussianBlur4001" /></filter><filter
   inkscape:collect="always"
   id="filter4003"
   x="-0.024206417"
   width="1.0484128"
   y="-0.10283295"
   height="1.2056659"
   color-interpolation-filters="sRGB"><feGaussianBlur
     inkscape:collect="always"
     stdDeviation="0.99465172"
     id="feGaussianBlur4005" /></filter>
	
	
	
	

		
	
		
		
		
	
		
		
		
		
		
		
		
		
		
		
		
		
	
		
	
	
	
	
	

		
	
		
		
	
		
	
		
		
		
		
	<linearGradient
   inkscape:collect="always"
   xlink:href="#linearGradient3598"
   id="linearGradient3620"
   x1="473.95499"
   y1="225.58197"
   x2="473.95499"
   y2="164.577"
   gradientUnits="userSpaceOnUse" /><linearGradient
   inkscape:collect="always"
   xlink:href="#linearGradient3483"
   id="linearGradient3879"
   gradientUnits="userSpaceOnUse"
   x1="193.67853"
   y1="227.42769"
   x2="192.737"
   y2="164.42589" /><linearGradient
   inkscape:collect="always"
   xlink:href="#linearGradient3483"
   id="linearGradient3881"
   gradientUnits="userSpaceOnUse"
   x1="193.67853"
   y1="227.42769"
   x2="192.737"
   y2="164.42589" /><linearGradient
   inkscape:collect="always"
   xlink:href="#linearGradient3483"
   id="linearGradient3883"
   gradientUnits="userSpaceOnUse"
   gradientTransform="translate(2.7507074,-101.77618)"
   x1="138.40564"
   y1="330.10239"
   x2="138.40564"
   y2="319.71936" /><linearGradient
   inkscape:collect="always"
   xlink:href="#linearGradient3632"
   id="linearGradient3885"
   gradientUnits="userSpaceOnUse"
   x1="137.46411"
   y1="317.84103"
   x2="137.46411"
   y2="324.8385" /><linearGradient
   inkscape:collect="always"
   xlink:href="#linearGradient3584"
   id="linearGradient3887"
   gradientUnits="userSpaceOnUse"
   gradientTransform="translate(3.7826799,-9.9750279)"
   x1="234.03793"
   y1="165.15395"
   x2="233.72409"
   y2="209.09224" /><linearGradient
   inkscape:collect="always"
   xlink:href="#linearGradient3598"
   id="linearGradient3891"
   gradientUnits="userSpaceOnUse"
   x1="473.95499"
   y1="225.58197"
   x2="473.95499"
   y2="164.577" /><linearGradient
   inkscape:collect="always"
   xlink:href="#linearGradient3598"
   id="linearGradient4003"
   gradientUnits="userSpaceOnUse"
   x1="473.95499"
   y1="225.58197"
   x2="473.95499"
   y2="164.577" /><linearGradient
   inkscape:collect="always"
   xlink:href="#linearGradient3598"
   id="linearGradient4005"
   gradientUnits="userSpaceOnUse"
   x1="473.95499"
   y1="225.58197"
   x2="473.95499"
   y2="164.577" /><linearGradient
   inkscape:collect="always"
   xlink:href="#linearGradient3632"
   id="linearGradient4009"
   gradientUnits="userSpaceOnUse"
   x1="137.46411"
   y1="317.84103"
   x2="137.46411"
   y2="324.8385" /><linearGradient
   inkscape:collect="always"
   xlink:href="#linearGradient3584"
   id="linearGradient4011"
   gradientUnits="userSpaceOnUse"
   gradientTransform="translate(3.7826799,-9.9750279)"
   x1="234.03793"
   y1="165.15395"
   x2="233.72409"
   y2="209.09224" /><linearGradient
   inkscape:collect="always"
   xlink:href="#linearGradient3598"
   id="linearGradient2938"
   gradientUnits="userSpaceOnUse"
   gradientTransform="translate(16.564834,16.038773)"
   x1="365.68323"
   y1="228.72025"
   x2="365.68323"
   y2="216.25424" />
	
	
	
	
	
<linearGradient
   inkscape:collect="always"
   xlink:href="#linearGradient3584"
   id="linearGradient3117"
   gradientUnits="userSpaceOnUse"
   gradientTransform="translate(3.7826799,-9.9750279)"
   x1="234.03793"
   y1="165.15395"
   x2="233.72409"
   y2="209.09224" />
	
	
	
	
<linearGradient
   inkscape:collect="always"
   xlink:href="#linearGradient3632"
   id="linearGradient3218"
   gradientUnits="userSpaceOnUse"
   x1="137.46411"
   y1="317.84103"
   x2="137.46411"
   y2="324.8385" /><linearGradient
   inkscape:collect="always"
   xlink:href="#linearGradient3584"
   id="linearGradient3220"
   gradientUnits="userSpaceOnUse"
   gradientTransform="translate(3.7826799,-9.9750279)"
   x1="234.03793"
   y1="165.15395"
   x2="233.72409"
   y2="209.09224" /><filter
   inkscape:collect="always"
   id="filter4193"
   x="-0.085987613"
   width="1.1719753"
   y="-0.10865135"
   height="1.2173027"
   color-interpolation-filters="sRGB"><feGaussianBlur
     inkscape:collect="always"
     stdDeviation="0.64222"
     id="feGaussianBlur4195" /></filter><linearGradient
   inkscape:collect="always"
   xlink:href="#linearGradient4197"
   id="linearGradient4203"
   x1="743.83221"
   y1="355.91418"
   x2="743.83221"
   y2="295.604"
   gradientUnits="userSpaceOnUse" />
	
	
	
	
<linearGradient
   inkscape:collect="always"
   xlink:href="#linearGradient4235"
   id="linearGradient4241"
   x1="591.16644"
   y1="296.15051"
   x2="591.16644"
   y2="355.90622"
   gradientUnits="userSpaceOnUse" /><linearGradient
   inkscape:collect="always"
   xlink:href="#linearGradient4260"
   id="linearGradient4266"
   x1="436.16766"
   y1="371.68591"
   x2="436.16766"
   y2="433.08426"
   gradientUnits="userSpaceOnUse" /><linearGradient
   inkscape:collect="always"
   xlink:href="#linearGradient3584"
   id="linearGradient4274"
   gradientUnits="userSpaceOnUse"
   gradientTransform="translate(3.7826799,-9.9750279)"
   x1="234.03793"
   y1="165.15395"
   x2="233.72409"
   y2="209.09224" /><linearGradient
   inkscape:collect="always"
   xlink:href="#linearGradient3584"
   id="linearGradient4296"
   gradientUnits="userSpaceOnUse"
   gradientTransform="translate(3.7826799,-9.9750279)"
   x1="234.03793"
   y1="165.15395"
   x2="233.72409"
   y2="209.09224" /><linearGradient
   inkscape:collect="always"
   xlink:href="#linearGradient3598"
   id="linearGradient4311"
   gradientUnits="userSpaceOnUse"
   x1="473.95499"
   y1="225.58197"
   x2="473.95499"
   y2="164.577" /><linearGradient
   inkscape:collect="always"
   xlink:href="#linearGradient3598"
   id="linearGradient4352"
   gradientUnits="userSpaceOnUse"
   gradientTransform="translate(16.564834,16.038773)"
   x1="365.68323"
   y1="228.72025"
   x2="365.68323"
   y2="216.25424" /><linearGradient
   inkscape:collect="always"
   xlink:href="#linearGradient3483"
   id="linearGradient4400"
   gradientUnits="userSpaceOnUse"
   gradientTransform="translate(2.7507074,-86.640049)"
   x1="138.40564"
   y1="330.10239"
   x2="138.40564"
   y2="319.71936" />
	
	
	
	
	
	
<linearGradient
   inkscape:collect="always"
   xlink:href="#linearGradient4455"
   id="linearGradient4461"
   x1="735.34491"
   y1="439.91519"
   x2="735.34491"
   y2="499.08917"
   gradientUnits="userSpaceOnUse" /><linearGradient
   inkscape:collect="always"
   xlink:href="#linearGradient4471"
   id="linearGradient4477"
   x1="664.09625"
   y1="501.10046"
   x2="664.09625"
   y2="510.29501"
   gradientUnits="userSpaceOnUse" /><linearGradient
   inkscape:collect="always"
   xlink:href="#linearGradient3584"
   id="linearGradient4485"
   gradientUnits="userSpaceOnUse"
   gradientTransform="translate(3.7826799,-9.9750279)"
   x1="234.03793"
   y1="165.15395"
   x2="233.72409"
   y2="209.09224" /><linearGradient
   inkscape:collect="always"
   xlink:href="#linearGradient4471"
   id="linearGradient4513"
   gradientUnits="userSpaceOnUse"
   x1="664.09625"
   y1="501.10046"
   x2="664.09625"
   y2="510.29501" />
		
		
	<linearGradient
   inkscape:collect="always"
   xlink:href="#linearGradient4471"
   id="linearGradient4529"
   gradientUnits="userSpaceOnUse"
   x1="664.09625"
   y1="501.10046"
   x2="664.09625"
   y2="510.29501"
   gradientTransform="translate(13.369724,31.384113)" /><linearGradient
   inkscape:collect="always"
   xlink:href="#linearGradient3632"
   id="linearGradient4543"
   gradientUnits="userSpaceOnUse"
   x1="137.46411"
   y1="317.84103"
   x2="137.46411"
   y2="324.8385" />
	
	
	
	
</defs><sodipodi:namedview
   pagecolor="#ffffff"
   bordercolor="#666666"
   borderopacity="1"
   objecttolerance="10"
   gridtolerance="10"
   guidetolerance="10"
   inkscape:pageopacity="0"
   inkscape:pageshadow="2"
   inkscape:window-width="1278"
   inkscape:window-height="779"
   id="namedview503"
   showgrid="false"
   inkscape:zoom="1.8109124"
   inkscape:cx="125.60263"
   inkscape:cy="-5.1767036"
   inkscape:window-x="0"
   inkscape:window-y="19"
   inkscape:window-maximized="1"
   inkscape:current-layer="Capa_1"
   showguides="true"
   inkscape:guide-bbox="true"
   fit-margin-top="0"
   fit-margin-left="0"
   fit-margin-right="0"
   fit-margin-bottom="0" />












<g
   id="g229"
   transform="translate(-291.90399,-164.57701)"
   style="fill:#ffffff">
		<path
   inkscape:connector-curvature="0"
   id="path231"
   d="m 327.207,217.253 -2.968,-4.744 -17.146,0 -3.021,4.744 -3.764,0 c 1.184,-1.925 2.39,-3.878 3.617,-5.856 1.229,-1.979 2.434,-3.922 3.617,-5.83 1.184,-1.908 2.333,-3.754 3.445,-5.539 1.113,-1.785 2.164,-3.463 3.154,-5.036 0.282,-0.601 0.777,-0.901 1.484,-0.901 0.652,0 1.139,0.3 1.457,0.901 l 13.912,22.261 -3.787,0 z m -18.074,-8.03 13.013,0 -5.963,-9.567 c -0.194,-0.318 -0.371,-0.477 -0.53,-0.477 -0.177,0 -0.354,0.159 -0.529,0.477 l -5.991,9.567 z"
   style="fill:#ffffff" />
		<path
   inkscape:connector-curvature="0"
   id="path233"
   d="m 360.65,215.743 c -1.271,1.007 -2.809,1.51 -4.611,1.51 l -16.006,0 c -1.82,0 -3.34,-0.495 -4.559,-1.484 -1.308,-1.024 -1.961,-2.288 -1.961,-3.79 l 0,-12.615 c 0,-1.466 0.653,-2.72 1.961,-3.763 1.272,-1.007 2.81,-1.51 4.611,-1.51 l 16.033,0 c 1.678,0 3.101,0.468 4.267,1.405 1.22,0.937 2.005,2.412 2.358,4.425 l -3.26,0 c -0.229,-0.972 -0.662,-1.652 -1.298,-2.041 -0.548,-0.335 -1.246,-0.503 -2.095,-0.503 l -16.006,0 c -0.954,0 -1.767,0.221 -2.438,0.663 -0.584,0.371 -0.875,0.813 -0.875,1.325 l 0,12.615 c 0,0.53 0.291,0.99 0.875,1.378 l -0.027,-0.026 c 0.654,0.441 1.458,0.662 2.412,0.662 l 16.006,0 c 0.83,0 1.572,-0.176 2.227,-0.53 0.777,-0.371 1.166,-0.875 1.166,-1.511 l 0,-4.638 -12.959,0 0,-3.26 16.192,0 0,7.924 c 0.002,1.467 -0.67,2.721 -2.013,3.764 z"
   style="fill:#ffffff" />
		<path
   inkscape:connector-curvature="0"
   id="path235"
   d="m 394.863,205.805 c -1.219,0.99 -2.748,1.484 -4.585,1.484 l -19.319,0 0,9.964 -3.259,0 0,-17.888 c 0,-1.466 0.653,-2.72 1.961,-3.763 1.272,-1.007 2.81,-1.51 4.61,-1.51 l 16.007,0 c 1.784,0 3.304,0.503 4.559,1.51 1.325,1.043 1.987,2.297 1.987,3.763 l 0,2.65 c 0,1.502 -0.653,2.765 -1.961,3.79 z m -1.271,-6.44 c 0,-0.495 -0.301,-0.936 -0.902,-1.325 -0.671,-0.442 -1.475,-0.663 -2.411,-0.663 l -16.032,0 c -0.813,0 -1.547,0.168 -2.199,0.503 -0.726,0.336 -1.088,0.831 -1.088,1.484 l 0,4.665 19.319,0 c 0.937,0 1.74,-0.212 2.411,-0.636 0.602,-0.388 0.902,-0.848 0.902,-1.378 l 0,-2.65 z"
   style="fill:#ffffff" />
		<path
   inkscape:connector-curvature="0"
   id="path237"
   d="m 430.983,212.085 c -0.266,1.573 -1.007,2.836 -2.227,3.79 -1.184,0.919 -2.614,1.378 -4.293,1.378 l -16.033,0 c -1.802,0 -3.33,-0.495 -4.584,-1.484 -1.325,-1.024 -1.987,-2.288 -1.987,-3.79 l 0,-17.862 3.312,0 0,17.862 c 0,0.53 0.292,0.99 0.875,1.378 l -0.027,-0.026 c 0.654,0.441 1.458,0.662 2.412,0.662 l 16.033,0 c 0.813,0 1.52,-0.176 2.12,-0.53 l -0.025,0 c 0.636,-0.389 1.067,-1.051 1.298,-1.987 l 2.597,0 0.529,0.609 z"
   style="fill:#ffffff" />
	</g><g
   id="g239"
   transform="translate(-291.90399,-164.57701)">
		<g
   id="g241">
			<path
   inkscape:connector-curvature="0"
   style="fill:#742e68"
   id="path243"
   d="m 483.223,164.577 19.454,0 -29.968,50.5 c -1.712,2.815 -3.382,4.981 -5.01,6.499 -1.628,1.518 -3.132,2.622 -4.512,3.311 -1.379,0.691 -2.566,1.091 -3.559,1.201 -0.994,0.111 -1.686,0.166 -2.07,0.166 l -17.882,0 0,-43.628 16.724,0 0.082,29.968 26.741,-48.017 z" />
		</g>
	</g><g
   id="g245"
   transform="translate(-291.90399,-164.57701)">
		<rect
   style="fill:#742e68"
   id="rect247"
   height="14.173"
   width="147.772"
   y="226.25301"
   x="291.90399" />
		<g
   id="g249">
			<path
   inkscape:connector-curvature="0"
   style="fill:#ffffff"
   id="path251"
   d="m 332.526,231.774 c 0.036,-0.249 -0.006,-0.421 -0.131,-0.516 l 0.007,0 c -0.114,-0.086 -0.278,-0.129 -0.497,-0.129 l -4.098,0 c -0.244,0 -0.471,0.056 -0.68,0.169 -0.184,0.096 -0.3,0.208 -0.348,0.34 l -0.435,1.196 3.024,0 -0.305,0.836 -3.025,0 -0.93,2.555 -0.843,0 1.67,-4.587 c 0.136,-0.375 0.423,-0.698 0.854,-0.965 0.42,-0.257 0.861,-0.387 1.322,-0.387 l 4.098,0 c 0.436,0 0.758,0.121 0.971,0.36 0.234,0.24 0.299,0.616 0.195,1.128 l -0.849,0 0,0 z" />
			<path
   inkscape:connector-curvature="0"
   style="fill:#ffffff"
   id="path253"
   d="m 338.577,233.377 c 0.017,-0.235 -0.055,-0.396 -0.213,-0.482 -0.059,-0.036 -0.125,-0.062 -0.199,-0.075 -0.076,-0.013 -0.154,-0.02 -0.234,-0.02 l -1.979,0 c -0.199,0 -0.396,0.038 -0.592,0.116 -0.227,0.086 -0.363,0.194 -0.41,0.326 l -1.086,2.983 -0.844,0 1.551,-4.261 0.844,0 -0.064,0.176 c 0.167,-0.063 0.322,-0.108 0.467,-0.136 0.143,-0.027 0.287,-0.041 0.434,-0.041 l 1.984,0 c 0.375,0 0.683,0.095 0.922,0.285 0.287,0.231 0.371,0.607 0.255,1.128 l -0.836,0 0,0.001 z" />
			<path
   inkscape:connector-curvature="0"
   style="fill:#ffffff"
   id="path255"
   d="m 346.078,233.228 c -0.144,0.395 -0.456,0.718 -0.938,0.972 -0.396,0.208 -0.801,0.312 -1.207,0.312 l -1.979,0 c -0.131,0 -0.253,-0.01 -0.368,-0.033 -0.114,-0.022 -0.253,-0.065 -0.415,-0.129 l -0.207,0.57 -0.006,0.014 c -0.029,0.118 0.041,0.225 0.211,0.32 0.072,0.05 0.148,0.084 0.227,0.106 0.078,0.02 0.159,0.03 0.24,0.03 l 1.979,0 c 0.08,0 0.163,-0.007 0.247,-0.02 0.085,-0.014 0.169,-0.04 0.255,-0.075 0.221,-0.087 0.409,-0.248 0.563,-0.483 l 0.835,0 c -0.26,0.516 -0.617,0.89 -1.073,1.122 -0.374,0.194 -0.751,0.292 -1.132,0.292 l -1.979,0 c -0.381,0 -0.699,-0.099 -0.957,-0.299 -0.322,-0.25 -0.409,-0.578 -0.262,-0.985 l 0.621,-1.706 c 0.147,-0.404 0.453,-0.725 0.916,-0.966 0.391,-0.204 0.802,-0.305 1.232,-0.305 l 1.979,0 c 0.416,0 0.748,0.097 0.994,0.292 0.298,0.24 0.374,0.563 0.224,0.971 z m -0.849,0.014 c 0.041,-0.108 0,-0.204 -0.119,-0.285 -0.13,-0.104 -0.317,-0.156 -0.562,-0.156 l -1.972,0 c -0.172,0 -0.367,0.038 -0.585,0.116 -0.229,0.082 -0.367,0.188 -0.415,0.319 -0.047,0.126 0.012,0.233 0.176,0.319 0.146,0.082 0.316,0.122 0.506,0.122 l 1.979,0 c 0.234,0 0.456,-0.049 0.665,-0.149 0.179,-0.082 0.288,-0.177 0.327,-0.286 z" />
			<path
   inkscape:connector-curvature="0"
   style="fill:#ffffff"
   id="path257"
   d="m 352.712,233.228 c -0.145,0.395 -0.457,0.718 -0.938,0.972 -0.397,0.208 -0.801,0.312 -1.208,0.312 l -1.978,0 c -0.132,0 -0.253,-0.01 -0.368,-0.033 -0.114,-0.022 -0.253,-0.065 -0.414,-0.129 l -0.209,0.57 -0.004,0.014 c -0.03,0.118 0.039,0.225 0.209,0.32 0.072,0.05 0.148,0.084 0.227,0.106 0.079,0.02 0.16,0.03 0.24,0.03 l 1.979,0 c 0.08,0 0.164,-0.007 0.248,-0.02 0.084,-0.014 0.17,-0.04 0.255,-0.075 0.222,-0.087 0.409,-0.248 0.563,-0.483 l 0.834,0 c -0.26,0.516 -0.617,0.89 -1.072,1.122 -0.375,0.194 -0.752,0.292 -1.133,0.292 l -1.979,0 c -0.38,0 -0.699,-0.099 -0.957,-0.299 -0.322,-0.25 -0.408,-0.578 -0.26,-0.985 l 0.62,-1.706 c 0.147,-0.404 0.452,-0.725 0.917,-0.966 0.39,-0.204 0.801,-0.305 1.23,-0.305 l 1.979,0 c 0.416,0 0.748,0.097 0.994,0.292 0.299,0.24 0.373,0.563 0.225,0.971 z m -0.848,0.014 c 0.039,-0.108 -0.002,-0.204 -0.121,-0.285 -0.129,-0.104 -0.316,-0.156 -0.561,-0.156 l -1.972,0 c -0.172,0 -0.368,0.038 -0.585,0.116 -0.229,0.082 -0.367,0.188 -0.416,0.319 -0.045,0.126 0.014,0.233 0.176,0.319 0.147,0.082 0.316,0.122 0.506,0.122 l 1.979,0 c 0.234,0 0.457,-0.049 0.666,-0.149 0.179,-0.082 0.287,-0.177 0.328,-0.286 z" />
			<path
   inkscape:connector-curvature="0"
   style="fill:#ffffff"
   id="path259"
   d="m 365.452,235.845 c -0.404,0.253 -0.84,0.38 -1.307,0.38 l -4.111,0 c -0.432,0 -0.754,-0.116 -0.969,-0.347 -0.23,-0.249 -0.295,-0.629 -0.195,-1.141 l 0.836,0 c -0.029,0.24 0.017,0.412 0.138,0.516 l -0.007,0 c 0.121,0.09 0.289,0.136 0.501,0.136 l 4.112,0 c 0.239,0 0.464,-0.057 0.672,-0.169 0.19,-0.101 0.31,-0.215 0.357,-0.347 l 0.248,-0.68 c 0.047,-0.131 0.012,-0.247 -0.105,-0.347 -0.125,-0.113 -0.313,-0.17 -0.557,-0.17 l -4.104,0 c -0.462,0 -0.808,-0.126 -1.036,-0.38 -0.244,-0.264 -0.297,-0.588 -0.154,-0.979 l 0.248,-0.68 c 0.136,-0.375 0.422,-0.698 0.854,-0.965 0.42,-0.257 0.861,-0.387 1.322,-0.387 l 4.113,0 c 0.43,0 0.75,0.121 0.962,0.36 0.234,0.24 0.3,0.616 0.194,1.128 l -0.835,0 c 0.028,-0.24 -0.019,-0.413 -0.14,-0.516 l 0.007,0 c -0.112,-0.086 -0.278,-0.129 -0.495,-0.129 l -4.112,0 c -0.245,0 -0.474,0.056 -0.687,0.169 -0.186,0.096 -0.301,0.208 -0.348,0.34 l -0.248,0.68 c -0.05,0.136 -0.018,0.254 0.096,0.354 0.126,0.113 0.314,0.169 0.563,0.169 l 4.112,0 c 0.466,0 0.811,0.127 1.029,0.381 0.242,0.267 0.295,0.59 0.156,0.972 l -0.248,0.68 c -0.138,0.385 -0.426,0.71 -0.862,0.972 z" />
			<path
   inkscape:connector-curvature="0"
   style="fill:#ffffff"
   id="path261"
   d="m 371.985,235.913 c -0.393,0.208 -0.796,0.312 -1.207,0.312 l -1.978,0 c -0.404,0 -0.73,-0.102 -0.982,-0.305 -0.305,-0.25 -0.383,-0.577 -0.236,-0.979 l 0.621,-1.706 c 0.145,-0.395 0.456,-0.718 0.939,-0.972 0.396,-0.208 0.802,-0.312 1.213,-0.312 l 1.979,0 c 0.389,0 0.71,0.097 0.961,0.292 0.314,0.254 0.4,0.582 0.252,0.985 l -0.623,1.713 c -0.144,0.393 -0.456,0.718 -0.939,0.972 z m 0.718,-2.685 c 0.046,-0.127 -0.013,-0.232 -0.175,-0.32 -0.139,-0.077 -0.307,-0.115 -0.502,-0.115 l -1.979,0 c -0.199,0 -0.393,0.036 -0.582,0.108 -0.232,0.091 -0.371,0.199 -0.418,0.326 l -0.625,1.72 c -0.047,0.127 0.012,0.233 0.175,0.319 0.147,0.081 0.313,0.122 0.5,0.122 l 1.984,0 c 0.091,0 0.183,-0.009 0.282,-0.027 0.096,-0.019 0.195,-0.047 0.296,-0.089 0.232,-0.09 0.372,-0.201 0.42,-0.332 l 0.624,-1.712 z" />
			<path
   inkscape:connector-curvature="0"
   style="fill:#ffffff"
   id="path263"
   d="m 375.837,232.8 -1.247,3.425 -0.843,0 1.695,-4.662 c 0.146,-0.399 0.419,-0.718 0.82,-0.959 0.352,-0.208 0.792,-0.312 1.322,-0.312 l -0.299,0.823 c -0.332,0.049 -0.572,0.113 -0.723,0.189 -0.15,0.078 -0.242,0.165 -0.277,0.259 l -0.146,0.401 0.842,0 -0.304,0.836 -0.84,0 z" />
			<path
   inkscape:connector-curvature="0"
   style="fill:#ffffff"
   id="path265"
   d="m 379.655,232.8 -1.246,3.425 -0.85,0 1.246,-3.425 -0.836,0 0.305,-0.836 0.836,0 0.611,-1.678 0.849,0 -0.61,1.678 0.843,0 -0.304,0.836 -0.844,0 z" />
			<path
   inkscape:connector-curvature="0"
   style="fill:#ffffff"
   id="path267"
   d="m 386.091,235.898 c -0.357,0.213 -0.762,0.32 -1.21,0.32 -0.244,0 -0.473,-0.035 -0.683,-0.103 -0.211,-0.068 -0.39,-0.174 -0.537,-0.319 -0.254,0.141 -0.517,0.247 -0.785,0.319 -0.269,0.073 -0.525,0.109 -0.771,0.109 -0.431,0 -0.752,-0.104 -0.966,-0.312 -0.236,-0.236 -0.279,-0.56 -0.13,-0.972 l 1.083,-2.977 0.844,0 -1.086,2.983 c -0.047,0.127 -0.008,0.23 0.117,0.312 0.137,0.086 0.327,0.129 0.571,0.129 0.249,0 0.47,-0.043 0.659,-0.129 0.186,-0.077 0.303,-0.183 0.354,-0.318 l 0.668,-1.835 0.843,0 -0.671,1.842 c -0.047,0.132 -0.008,0.233 0.121,0.306 0.136,0.086 0.321,0.129 0.557,0.129 0.254,0 0.476,-0.043 0.666,-0.129 0.188,-0.077 0.302,-0.179 0.348,-0.306 l 1.086,-2.983 0.851,0 -1.083,2.977 c -0.145,0.398 -0.428,0.718 -0.846,0.957 z" />
			<path
   inkscape:connector-curvature="0"
   style="fill:#ffffff"
   id="path269"
   d="m 392.438,235.92 c -0.396,0.204 -0.805,0.305 -1.226,0.305 l -1.978,0 c -0.426,0 -0.762,-0.099 -1.006,-0.299 -0.295,-0.236 -0.368,-0.559 -0.217,-0.972 0.145,-0.398 0.456,-0.72 0.936,-0.965 0.396,-0.208 0.803,-0.313 1.214,-0.313 l 1.979,0 c 0.127,0 0.247,0.013 0.36,0.035 0.115,0.022 0.253,0.065 0.415,0.129 l 0.21,-0.578 c 0.027,-0.122 -0.04,-0.23 -0.2,-0.326 -0.144,-0.09 -0.299,-0.136 -0.466,-0.136 l -1.979,0 c -0.086,0 -0.171,0.007 -0.256,0.02 -0.084,0.014 -0.169,0.04 -0.254,0.075 -0.222,0.086 -0.41,0.248 -0.563,0.482 l -0.836,0 c 0.264,-0.516 0.62,-0.89 1.067,-1.121 0.374,-0.195 0.753,-0.292 1.14,-0.292 l 1.983,0 c 0.39,0 0.71,0.097 0.96,0.292 0.318,0.245 0.403,0.573 0.254,0.985 l -0.621,1.706 c -0.145,0.405 -0.451,0.728 -0.916,0.973 z m 0.073,-0.966 c 0.046,-0.126 -0.012,-0.233 -0.176,-0.319 -0.146,-0.082 -0.313,-0.123 -0.498,-0.123 l -1.979,0 c -0.231,0 -0.455,0.051 -0.673,0.151 -0.179,0.081 -0.288,0.176 -0.328,0.285 -0.042,0.113 -0.005,0.21 0.11,0.292 0.137,0.099 0.324,0.149 0.565,0.149 l 1.983,0 c 0.195,0 0.387,-0.036 0.576,-0.109 0.234,-0.09 0.373,-0.198 0.42,-0.326 z" />
			<path
   inkscape:connector-curvature="0"
   style="fill:#ffffff"
   id="path271"
   d="m 399.738,233.377 c 0.017,-0.235 -0.054,-0.396 -0.212,-0.482 -0.06,-0.036 -0.126,-0.062 -0.201,-0.075 -0.074,-0.013 -0.152,-0.02 -0.233,-0.02 l -1.978,0 c -0.199,0 -0.398,0.038 -0.594,0.116 -0.225,0.086 -0.361,0.194 -0.41,0.326 l -1.086,2.983 -0.843,0 1.551,-4.261 0.843,0 -0.063,0.176 c 0.167,-0.063 0.323,-0.108 0.467,-0.136 0.144,-0.027 0.288,-0.041 0.433,-0.041 l 1.984,0 c 0.377,0 0.684,0.095 0.923,0.285 0.287,0.231 0.372,0.607 0.255,1.128 l -0.836,0 0,0.001 z" />
			<path
   inkscape:connector-curvature="0"
   style="fill:#ffffff"
   id="path273"
   d="m 407.239,233.228 c -0.144,0.395 -0.456,0.718 -0.938,0.972 -0.398,0.208 -0.801,0.312 -1.208,0.312 l -1.978,0 c -0.133,0 -0.254,-0.01 -0.369,-0.033 -0.113,-0.022 -0.252,-0.065 -0.414,-0.129 l -0.208,0.57 -0.005,0.014 c -0.029,0.118 0.04,0.225 0.209,0.32 0.072,0.05 0.148,0.084 0.227,0.106 0.08,0.02 0.16,0.03 0.24,0.03 l 1.979,0 c 0.081,0 0.164,-0.007 0.248,-0.02 0.085,-0.014 0.17,-0.04 0.256,-0.075 0.221,-0.087 0.408,-0.248 0.563,-0.483 l 0.835,0 c -0.261,0.516 -0.617,0.89 -1.073,1.122 -0.374,0.194 -0.752,0.292 -1.132,0.292 l -1.979,0 c -0.381,0 -0.7,-0.099 -0.958,-0.299 -0.322,-0.25 -0.408,-0.578 -0.26,-0.985 l 0.621,-1.706 c 0.146,-0.404 0.452,-0.725 0.916,-0.966 0.391,-0.204 0.801,-0.305 1.231,-0.305 l 1.979,0 c 0.416,0 0.747,0.097 0.994,0.292 0.298,0.24 0.373,0.563 0.224,0.971 z m -0.847,0.014 c 0.039,-0.108 -10e-4,-0.204 -0.121,-0.285 -0.129,-0.104 -0.316,-0.156 -0.561,-0.156 l -1.971,0 c -0.172,0 -0.368,0.038 -0.586,0.116 -0.229,0.082 -0.367,0.188 -0.415,0.319 -0.046,0.126 0.013,0.233 0.176,0.319 0.147,0.082 0.315,0.122 0.506,0.122 l 1.978,0 c 0.235,0 0.457,-0.049 0.666,-0.149 0.179,-0.082 0.288,-0.177 0.328,-0.286 z" />
		</g>
	</g><g
   id="g275"
   transform="translate(-291.90399,-164.57701)"
   style="fill:#ffffff">
		<path
   inkscape:connector-curvature="0"
   id="path277"
   d="m 517.324,211.954 c 0,1.505 -0.664,2.771 -1.992,3.798 -1.221,0.992 -2.744,1.487 -4.568,1.487 l -16.068,0 c -1.682,0 -3.107,-0.452 -4.275,-1.354 -1.258,-0.974 -2.055,-2.461 -2.391,-4.462 l 3.268,0 c 0.229,0.938 0.654,1.611 1.274,2.019 l -0.026,0 c 0.602,0.354 1.318,0.531 2.15,0.531 l 16.068,0 c 0.921,0 1.718,-0.213 2.391,-0.638 0.602,-0.389 0.903,-0.85 0.903,-1.381 l 0,-2.656 c 0,-0.495 -0.302,-0.938 -0.903,-1.328 -0.708,-0.46 -1.514,-0.691 -2.416,-0.691 l -8.553,0 0,-3.267 8.578,0 c 0.939,0 1.736,-0.221 2.391,-0.664 0.602,-0.389 0.903,-0.841 0.903,-1.354 l 0,-2.656 c 0,-0.496 -0.302,-0.938 -0.903,-1.328 -0.708,-0.46 -1.514,-0.69 -2.416,-0.69 l -16.043,0 c -0.814,0 -1.522,0.177 -2.124,0.531 l 0.026,0 c -0.637,0.372 -1.071,1.045 -1.301,2.019 l -3.268,0 c 0.318,-2.019 1.098,-3.488 2.338,-4.409 1.168,-0.938 2.611,-1.407 4.328,-1.407 l 16.068,0 c 1.789,0 3.312,0.496 4.568,1.487 1.328,1.045 1.992,2.311 1.992,3.798 0,1.292 -0.053,2.47 -0.159,3.532 -0.036,0.531 -0.212,1.019 -0.531,1.461 -0.142,0.195 -0.306,0.398 -0.491,0.611 -0.185,0.213 -0.412,0.443 -0.678,0.69 0.514,0.478 0.903,0.921 1.169,1.328 0.301,0.496 0.478,0.974 0.531,1.434 0.107,1.045 0.16,2.231 0.16,3.559 z"
   style="fill:#ffffff" />
	</g>












</svg>