<?xml version="1.0" encoding="UTF-8" standalone="no"?>
<!-- Created with Inkscape (http://www.inkscape.org/) -->

<svg
   xmlns:dc="http://purl.org/dc/elements/1.1/"
   xmlns:cc="http://creativecommons.org/ns#"
   xmlns:rdf="http://www.w3.org/1999/02/22-rdf-syntax-ns#"
   xmlns:svg="http://www.w3.org/2000/svg"
   xmlns="http://www.w3.org/2000/svg"
   xmlns:sodipodi="http://sodipodi.sourceforge.net/DTD/sodipodi-0.dtd"
   xmlns:inkscape="http://www.inkscape.org/namespaces/inkscape"
   width="100"
   height="100"
   id="svg2"
   sodipodi:version="0.32"
   inkscape:version="0.48.3.1 r9886"
   sodipodi:docname="gallery.svg"
   inkscape:output_extension="org.inkscape.output.svg.inkscape"
   version="1.1">
  <defs
     id="defs4">
    <inkscape:perspective
       sodipodi:type="inkscape:persp3d"
       inkscape:vp_x="0 : 526.18109 : 1"
       inkscape:vp_y="0 : 1000 : 0"
       inkscape:vp_z="744.09448 : 526.18109 : 1"
       inkscape:persp3d-origin="372.04724 : 350.78739 : 1"
       id="perspective3331" />
    <inkscape:perspective
       id="perspective10"
       inkscape:persp3d-origin="372.04724 : 350.78739 : 1"
       inkscape:vp_z="744.09448 : 526.18109 : 1"
       inkscape:vp_y="0 : 1000 : 0"
       inkscape:vp_x="0 : 526.18109 : 1"
       sodipodi:type="inkscape:persp3d" />
  </defs>
  <sodipodi:namedview
     id="base"
     pagecolor="#ffffff"
     bordercolor="#666666"
     borderopacity="1.0"
     inkscape:pageopacity="0.0"
     inkscape:pageshadow="2"
     inkscape:zoom="4.8949467"
     inkscape:cx="6.1792981"
     inkscape:cy="50"
     inkscape:document-units="px"
     inkscape:current-layer="layer1"
     inkscape:window-width="1398"
     inkscape:window-height="1029"
     inkscape:window-x="0"
     inkscape:window-y="19"
     showgrid="false"
     showguides="true"
     inkscape:guide-bbox="true"
     inkscape:window-maximized="0"
     inkscape:snap-page="true">
    <sodipodi:guide
       orientation="1,0"
       position="500,719.40979"
       id="guide6202" />
    <sodipodi:guide
       orientation="0,1"
       position="559.73172,362.28035"
       id="guide6204" />
  </sodipodi:namedview>
  <metadata
     id="metadata7">
    <rdf:RDF>
      <cc:Work
         rdf:about="">
        <dc:format>image/svg+xml</dc:format>
        <dc:type
           rdf:resource="http://purl.org/dc/dcmitype/StillImage" />
        <dc:title></dc:title>
      </cc:Work>
    </rdf:RDF>
  </metadata>
  <g
     inkscape:label="Capa 1"
     inkscape:groupmode="layer"
     id="layer1"
     transform="translate(0,-952.36215)">
    <path
       style="color:#000000;fill:#828282;fill-opacity:1;fill-rule:nonzero;stroke:none;stroke-width:1.25000000000000000px;marker:none;visibility:visible;display:inline;overflow:visible;enable-background:accumulate"
       d="M 50 0 C 22.385763 5.5511151e-15 1.2499407e-16 22.385763 0 50 C 0 77.614237 22.385763 100 50 100 C 77.614237 100 100 77.614237 100 50 C 100 22.385763 77.614237 -1.0977236e-14 50 0 z M 50 4.6875 C 75.025403 4.6875 95.3125 24.974597 95.3125 50 C 95.3125 75.025403 75.025403 95.3125 50 95.3125 C 24.974597 95.3125 4.6875 75.025403 4.6875 50 C 4.6875 24.974597 24.974597 4.6875 50 4.6875 z "
       transform="translate(0,952.36215)"
       id="path6237" />
    <g
       style="font-size:111.51595305999998686px;font-style:normal;font-variant:normal;font-weight:normal;font-stretch:normal;text-indent:0;text-align:start;text-decoration:none;line-height:125%;letter-spacing:0px;word-spacing:0px;text-transform:none;direction:ltr;block-progression:tb;writing-mode:lr-tb;text-anchor:start;baseline-shift:baseline;color:#000000;fill:#828282;fill-opacity:1;fill-rule:nonzero;stroke:none;stroke-width:1px;marker:none;visibility:visible;display:inline;overflow:visible;enable-background:accumulate;font-family:Comfortaa;-inkscape-font-specification:Comfortaa"
       id="text7248">
      <path
         d="m 30.428951,1029.0144 c -1.263856,-1.0408 -1.449715,-2.2674 -0.55758,-3.68 l 16.727393,-22.8608 -16.727393,-22.97224 c -0.892135,-1.48683 -0.706276,-2.75068 0.55758,-3.79154 0.520398,-0.37167 1.152321,-0.48319 1.895771,-0.33455 0.817772,0.0744 1.412523,0.40894 1.784255,1.00364 l 15.835265,21.52258 15.72375,-21.52258 c 0.446019,-0.5947 1.003598,-0.92924 1.672739,-1.00364 0.743393,-0.14864 1.375316,-0.0371 1.895771,0.33455 1.412487,0.96652 1.67269,2.23037 0.780612,3.79154 l -16.838909,22.97224 16.838909,22.8608 c 0.966422,1.4869 0.706218,2.7136 -0.780612,3.68 -0.371767,0.3718 -0.966518,0.5576 -1.784255,0.5576 -0.743485,0 -1.338236,-0.3717 -1.784255,-1.1151 l -15.72375,-21.5226 -15.835265,21.5226 c -0.446076,0.7434 -1.040827,1.1151 -1.784255,1.1151 -0.669106,0 -1.301029,-0.1858 -1.895771,-0.5576"
         style="marker:none;font-family:Quicksand;-inkscape-font-specification:Quicksand;fill:#828282;fill-opacity:1"
         id="path7253" />
    </g>
    <g
       style="font-size:111.51595305999998686px;font-style:normal;font-variant:normal;font-weight:normal;font-stretch:normal;text-indent:0;text-align:start;text-decoration:none;line-height:125%;letter-spacing:0px;word-spacing:0px;text-transform:none;direction:ltr;block-progression:tb;writing-mode:lr-tb;text-anchor:start;baseline-shift:baseline;color:#000000;fill:#828282;fill-opacity:1;fill-rule:nonzero;stroke:none;stroke-width:1px;marker:none;visibility:visible;display:inline;overflow:visible;enable-background:accumulate;font-family:Comfortaa;-inkscape-font-specification:Comfortaa"
       id="text7248-9">
      <path
         inkscape:connector-curvature="0"
         d="m 30.428951,1029.0144 c -1.263856,-1.0408 -1.449715,-2.2674 -0.55758,-3.68 l 16.727393,-22.8608 -16.727393,-22.97224 c -0.892135,-1.48683 -0.706276,-2.75068 0.55758,-3.79154 0.520398,-0.37167 1.152321,-0.48319 1.895771,-0.33455 0.817772,0.0744 1.412523,0.40894 1.784255,1.00364 l 15.835265,21.52258 15.72375,-21.52258 c 0.446019,-0.5947 1.003598,-0.92924 1.672739,-1.00364 0.743393,-0.14864 1.375316,-0.0371 1.895771,0.33455 1.412487,0.96652 1.67269,2.23037 0.780612,3.79154 l -16.838909,22.97224 16.838909,22.8608 c 0.966422,1.4869 0.706218,2.7136 -0.780612,3.68 -0.371767,0.3718 -0.966518,0.5576 -1.784255,0.5576 -0.743485,0 -1.338236,-0.3717 -1.784255,-1.1151 l -15.72375,-21.5226 -15.835265,21.5226 c -0.446076,0.7434 -1.040827,1.1151 -1.784255,1.1151 -0.669106,0 -1.301029,-0.1858 -1.895771,-0.5576"
         style="marker:none;font-family:Quicksand;-inkscape-font-specification:Quicksand;fill:#828282;fill-opacity:1"
         id="path7253-5" />
    </g>
  </g>
</svg>
