<?xml version="1.0" encoding="UTF-8" standalone="no"?>
<!-- Created with Inkscape (http://www.inkscape.org/) -->

<svg
   xmlns:dc="http://purl.org/dc/elements/1.1/"
   xmlns:cc="http://creativecommons.org/ns#"
   xmlns:rdf="http://www.w3.org/1999/02/22-rdf-syntax-ns#"
   xmlns:svg="http://www.w3.org/2000/svg"
   xmlns="http://www.w3.org/2000/svg"
   xmlns:sodipodi="http://sodipodi.sourceforge.net/DTD/sodipodi-0.dtd"
   xmlns:inkscape="http://www.inkscape.org/namespaces/inkscape"
   width="70"
   height="70"
   id="svg2"
   sodipodi:version="0.32"
   inkscape:version="0.48.3.1 r9886"
   sodipodi:docname="berriak.svg"
   inkscape:output_extension="org.inkscape.output.svg.inkscape"
   version="1.1">
  <defs
     id="defs4">
    <inkscape:path-effect
       effect="skeletal"
       id="path-effect5042"
       is_visible="true"
       pattern="m -5.5039997,-8.4847994 c 0,-2.7599996 2.24,-4.9999996 4.99999996,-4.9999996 2.76000004,0 5.00000004,2.24 5.00000004,4.9999996 0,2.76 -2.24,5 -5.00000004,5 -2.75999996,0 -4.99999996,-2.24 -4.99999996,-5 z"
       copytype="single_stretched"
       prop_scale="1"
       scale_y_rel="false"
       spacing="0"
       normal_offset="0"
       tang_offset="0"
       prop_units="false"
       vertical_pattern="false"
       fuse_tolerance="0" />
    <inkscape:path-effect
       effect="skeletal"
       id="path-effect5030"
       is_visible="true"
       pattern="m 10.1824,-7.1551997 0,10 10,-5 z"
       copytype="single_stretched"
       prop_scale="1"
       scale_y_rel="false"
       spacing="0"
       normal_offset="0"
       tang_offset="0"
       prop_units="false"
       vertical_pattern="false"
       fuse_tolerance="0" />
  </defs>
  <sodipodi:namedview
     id="base"
     pagecolor="#ffffff"
     bordercolor="#666666"
     borderopacity="1.0"
     inkscape:pageopacity="0.0"
     inkscape:pageshadow="2"
     inkscape:zoom="5.9428571"
     inkscape:cx="14.639423"
     inkscape:cy="52.96274"
     inkscape:document-units="px"
     inkscape:current-layer="layer1"
     inkscape:window-width="1398"
     inkscape:window-height="1029"
     inkscape:window-x="0"
     inkscape:window-y="19"
     showgrid="false"
     showguides="true"
     inkscape:guide-bbox="true"
     inkscape:window-maximized="0"
     inkscape:snap-page="false"
     borderlayer="true">
    <sodipodi:guide
       orientation="0,1"
       position="616.20276,407.53827"
       id="guide5523" />
    <sodipodi:guide
       orientation="1,0"
       position="596.00943,384.28534"
       id="guide5525" />
  </sodipodi:namedview>
  <metadata
     id="metadata7">
    <rdf:RDF>
      <cc:Work
         rdf:about="">
        <dc:format>image/svg+xml</dc:format>
        <dc:type
           rdf:resource="http://purl.org/dc/dcmitype/StillImage" />
        <dc:title></dc:title>
      </cc:Work>
    </rdf:RDF>
  </metadata>
  <g
     inkscape:label="Capa 1"
     inkscape:groupmode="layer"
     id="layer1"
     transform="translate(0,-982.3622)">
    <path
       style="font-size:medium;font-style:normal;font-variant:normal;font-weight:normal;font-stretch:normal;text-indent:0;text-align:start;text-decoration:none;line-height:normal;letter-spacing:normal;word-spacing:normal;text-transform:none;direction:ltr;block-progression:tb;writing-mode:lr-tb;text-anchor:start;baseline-shift:baseline;color:#000000;fill:#ffffff;fill-opacity:1;stroke:none;stroke-width:2;marker:none;visibility:visible;display:inline;overflow:visible;enable-background:accumulate;font-family:Sans;-inkscape-font-specification:Sans"
       d="m 9.53125,985.9247 0,1 0,60.875 0,1 1,0 48.9375,0 1,0 0,-1 0,-51.28125 0,-0.40625 -0.28125,-0.3125 -0.28125,-0.28125 -0.28125,-0.28125 -0.59375,-0.5625 -0.3125,-0.28125 -0.875,-0.90625 -0.3125,-0.28125 -0.40625,-0.4375 -0.4375,-0.40625 -1.1875,-1.1875 -0.3125,-0.3125 -0.875,-0.84375 L 54,989.6747 l -0.84375,-0.84375 -0.3125,-0.3125 -0.875,-0.875 -0.3125,-0.28125 -0.84375,-0.84375 -0.28125,-0.28125 -0.0625,0.0313 c -0.158406,-0.10819 -0.352777,-0.23555 -0.65625,-0.34375 l -39.28125,0 -1,0 z m 2,2 37.28125,0 0,6.90625 -31.5625,0 0,2 31.8125,0 0,-0.0625 0.75,0.75 8.65625,0 0,49.28125 -46.9375,0 0,-58.875 z m 39.28125,1.40625 0.625,0.625 0.28125,0.28125 0.03125,0.0313 0.84375,0.84375 0.28125,0.3125 0.03125,0 0,0.0313 0.59375,0.5625 0.28125,0.28125 0.3125,0.28125 0.875,0.875 0.3125,0.3125 0.84375,0.84375 0.3125,0.3125 0.59375,0.59375 -6.21875,0 0,-6.1875 z M 17.25,1003.581 l 0,2 35.5,0 0,-2 -35.5,0 z m 0,8.75 0,2 35.5,0 0,-2 -35.5,0 z m 0,8.75 0,2 35.5,0 0,-2 -35.5,0 z m 0,8.75 0,2 35.5,0 0,-2 -35.5,0 z m 0,8.75 0,2 35.5,0 0,-2 -35.5,0 z"
       id="path5018"
       inkscape:connector-curvature="0" />
  </g>
</svg>
