<?xml version="1.0" encoding="UTF-8" standalone="no"?>
<!-- Created with Inkscape (http://www.inkscape.org/) -->

<svg
   xmlns:dc="http://purl.org/dc/elements/1.1/"
   xmlns:cc="http://creativecommons.org/ns#"
   xmlns:rdf="http://www.w3.org/1999/02/22-rdf-syntax-ns#"
   xmlns:svg="http://www.w3.org/2000/svg"
   xmlns="http://www.w3.org/2000/svg"
   xmlns:sodipodi="http://sodipodi.sourceforge.net/DTD/sodipodi-0.dtd"
   xmlns:inkscape="http://www.inkscape.org/namespaces/inkscape"
   width="100"
   height="100"
   id="svg2"
   sodipodi:version="0.32"
   inkscape:version="0.48.3.1 r9886"
   sodipodi:docname="eragileak2.svg"
   inkscape:output_extension="org.inkscape.output.svg.inkscape"
   version="1.1">
  <defs
     id="defs4" />
  <sodipodi:namedview
     id="base"
     pagecolor="#ffffff"
     bordercolor="#666666"
     borderopacity="1.0"
     inkscape:pageopacity="0.0"
     inkscape:pageshadow="2"
     inkscape:zoom="4.16"
     inkscape:cx="50"
     inkscape:cy="50"
     inkscape:document-units="px"
     inkscape:current-layer="layer1"
     inkscape:window-width="1398"
     inkscape:window-height="1029"
     inkscape:window-x="0"
     inkscape:window-y="19"
     showgrid="false"
     showguides="true"
     inkscape:guide-bbox="true"
     inkscape:window-maximized="0"
     inkscape:snap-page="true">
    <sodipodi:guide
       orientation="1,0"
       position="500,719.40979"
       id="guide6202" />
    <sodipodi:guide
       orientation="0,1"
       position="559.73172,362.28035"
       id="guide6204" />
  </sodipodi:namedview>
  <metadata
     id="metadata7">
    <rdf:RDF>
      <cc:Work
         rdf:about="">
        <dc:format>image/svg+xml</dc:format>
        <dc:type
           rdf:resource="http://purl.org/dc/dcmitype/StillImage" />
        <dc:title></dc:title>
      </cc:Work>
    </rdf:RDF>
  </metadata>
  <g
     inkscape:label="Capa 1"
     inkscape:groupmode="layer"
     id="layer1"
     transform="translate(0,-952.36215)">
    <path
       style="color:#000000;fill:#ffffff;fill-opacity:1;fill-rule:nonzero;stroke:none;stroke-width:1.25000000000000000px;marker:none;visibility:visible;display:inline;overflow:visible;enable-background:accumulate"
       d="m 16.828125,983.28523 0,40.06247 66.34375,0 0,-40.06247 -66.34375,0 z m 23.34375,10.78125 10.75,20.78122 12.8125,-15.71872 9.25,9.84372 9.34375,-9.34372 0,22.93752 -64.65625,0 0,-8.2813 0.09375,-0.25 4.40625,-10.8437 8.625,12.1562 9.375,-21.28122 z"
       id="rect6666-9"
       inkscape:connector-curvature="0" />
    <path
       style="color:#000000;fill:#ffffff;fill-opacity:1;fill-rule:nonzero;stroke:none;stroke-width:1.25000000000000000px;marker:none;visibility:visible;display:inline;overflow:visible;enable-background:accumulate"
       d="M 50 0 C 22.385763 5.5511151e-15 1.2499407e-16 22.385763 0 50 C 0 77.614237 22.385763 100 50 100 C 77.614237 100 100 77.614237 100 50 C 100 22.385763 77.614237 -1.0977236e-14 50 0 z M 50 4.6875 C 75.025403 4.6875 95.3125 24.974597 95.3125 50 C 95.3125 75.025403 75.025403 95.3125 50 95.3125 C 24.974597 95.3125 4.6875 75.025403 4.6875 50 C 4.6875 24.974597 24.974597 4.6875 50 4.6875 z "
       transform="translate(0,952.36215)"
       id="path6237" />
  </g>
</svg>
