<?xml version="1.0" encoding="UTF-8" standalone="no"?>
<!-- Created with Inkscape (http://www.inkscape.org/) -->

<svg
   xmlns:dc="http://purl.org/dc/elements/1.1/"
   xmlns:cc="http://creativecommons.org/ns#"
   xmlns:rdf="http://www.w3.org/1999/02/22-rdf-syntax-ns#"
   xmlns:svg="http://www.w3.org/2000/svg"
   xmlns="http://www.w3.org/2000/svg"
   xmlns:sodipodi="http://sodipodi.sourceforge.net/DTD/sodipodi-0.dtd"
   xmlns:inkscape="http://www.inkscape.org/namespaces/inkscape"
   width="500"
   height="500"
   id="svg2"
   sodipodi:version="0.32"
   inkscape:version="0.48.3.1 r9886"
   sodipodi:docname="jaion.svg"
   inkscape:output_extension="org.inkscape.output.svg.inkscape"
   version="1.1"
   inkscape:export-filename="/home/koxta/proiektuak/lakaxita/kaka/gif/jaion22.png"
   inkscape:export-xdpi="90"
   inkscape:export-ydpi="90">
  <defs
     id="defs4" />
  <sodipodi:namedview
     id="base"
     pagecolor="#ffffff"
     bordercolor="#666666"
     borderopacity="1.0"
     inkscape:pageopacity="0.0"
     inkscape:pageshadow="2"
     inkscape:zoom="1"
     inkscape:cx="198.23998"
     inkscape:cy="132.67234"
     inkscape:document-units="px"
     inkscape:current-layer="layer1"
     inkscape:window-width="1398"
     inkscape:window-height="1029"
     inkscape:window-x="0"
     inkscape:window-y="19"
     showgrid="false"
     inkscape:window-maximized="0"
     inkscape:snap-page="false"
     showguides="true"
     inkscape:guide-bbox="true"
     inkscape:snap-to-guides="true">
    <sodipodi:guide
       orientation="0,1"
       position="284.09473,250"
       id="guide3744" />
    <sodipodi:guide
       orientation="1,0"
       position="250,92.270084"
       id="guide3746" />
  </sodipodi:namedview>
  <metadata
     id="metadata7">
    <rdf:RDF>
      <cc:Work
         rdf:about="">
        <dc:format>image/svg+xml</dc:format>
        <dc:type
           rdf:resource="http://purl.org/dc/dcmitype/StillImage" />
        <dc:title></dc:title>
      </cc:Work>
    </rdf:RDF>
  </metadata>
  <g
     inkscape:label="Capa 1"
     inkscape:groupmode="layer"
     id="layer1"
     transform="translate(0,-552.36218)">
    <g
       id="g3089"
       inkscape:transform-center-y="173.97242"
       transform="translate(2.2270334e-5,-12.999832)"
       inkscape:transform-center-x="-1.873742e-05">
      <rect
         transform="scale(-1,1)"
         y="931.20538"
         x="-279.06119"
         height="71.450951"
         width="108.98689"
         id="rect36072"
         style="color:#000000;fill:#aaaaff;fill-opacity:1;fill-rule:nonzero;stroke:none;stroke-width:2;marker:none;visibility:visible;display:inline;overflow:visible;enable-background:accumulate" />
      <path
         id="path35000"
         d="m 201.81148,1023.4493 c 7.44464,0 13.41234,5.9681 13.41234,13.4124 0,7.445 -5.9677,13.5005 -13.41234,13.5005 -7.44463,0 -13.50049,-6.0555 -13.50049,-13.5005 0,-7.4443 6.05586,-13.4124 13.50049,-13.4124 z m 0,7.0093 c -3.53435,0 -6.40309,2.8693 -6.40309,6.4031 0,3.5345 2.86874,6.4031 6.40309,6.4031 3.53429,0 6.4031,-2.8686 6.4031,-6.4031 0,-3.5338 -2.86881,-6.4031 -6.4031,-6.4031 z"
         style="color:#000000;fill:#333333;fill-opacity:1;fill-rule:nonzero;stroke:none;stroke-width:3;marker:none;visibility:visible;display:inline;overflow:visible;enable-background:accumulate"
         inkscape:connector-curvature="0" />
      <path
         id="path34995"
         d="m 293.18506,1023.4493 c 7.44457,0 13.5005,5.9681 13.5005,13.4124 0,7.445 -6.05593,13.5005 -13.5005,13.5005 -7.44464,0 -13.51152,-6.0555 -13.51152,-13.5005 0,-7.4443 6.06688,-13.4124 13.51152,-13.4124 z m 0,7.0093 c -3.53436,0 -6.40309,2.8693 -6.40309,6.4031 0,3.5345 2.86873,6.4031 6.40309,6.4031 3.53429,0 6.40309,-2.8686 6.40309,-6.4031 0,-3.5338 -2.8688,-6.4031 -6.40309,-6.4031 z"
         style="color:#000000;fill:#333333;fill-opacity:1;fill-rule:nonzero;stroke:none;stroke-width:3;marker:none;visibility:visible;display:inline;overflow:visible;enable-background:accumulate"
         inkscape:connector-curvature="0" />
      <rect
         transform="scale(-1,1)"
         y="956.93982"
         x="-327.80527"
         height="46.019257"
         width="32.092377"
         id="rect35041"
         style="color:#000000;fill:#5599ff;fill-opacity:1;fill-rule:nonzero;stroke:none;stroke-width:2;marker:none;visibility:visible;display:inline;overflow:visible;enable-background:accumulate" />
      <rect
         transform="scale(-1,1)"
         y="1004.1701"
         x="-327.5025"
         height="15.137914"
         width="12.110331"
         id="rect35043"
         style="color:#000000;fill:#ff6600;fill-opacity:1;fill-rule:nonzero;stroke:none;stroke-width:2;marker:none;visibility:visible;display:inline;overflow:visible;enable-background:accumulate" />
      <rect
         transform="scale(-1,1)"
         y="1026.5742"
         x="-332.95218"
         height="9.9910221"
         width="11.202056"
         id="rect35047"
         style="color:#000000;fill:#ff0000;fill-opacity:1;fill-rule:nonzero;stroke:none;stroke-width:2;marker:none;visibility:visible;display:inline;overflow:visible;enable-background:accumulate" />
      <path
         id="path34986"
         d="m 318.69825,945.4881 12.01268,12.01269 0,63.40271 6.75576,0 0,19.8155 -15.52833,0 -5.08059,-5.0806 -4.03362,0 c -0.63892,-10.3283 -9.15073,-18.504 -19.63909,-18.504 -10.48843,0 -19.01194,8.1757 -19.65011,18.504 l -52.08437,0 c -0.63893,-10.3283 -9.15073,-18.504 -19.6391,-18.504 -10.90372,0 -19.72725,8.8234 -19.72725,19.7273 0,1.4617 0.13908,2.9263 0.44083,4.2981 l -19.99176,0 0,-18.4158 5.69776,-1.576 0,-10.7012 118.81541,0 0,-64.9787 31.65178,0 z m 7.0974,14.20583 -25.86585,0 0,35.69642 25.86585,0 0,-35.69642 z m 0,46.38657 -8.06724,0 0,10.5249 8.06724,0 0,-10.5249 z m 5.53245,21.3143 -8.33174,0 0,8.2436 8.33174,0 0,-8.2436 z"
         style="color:#000000;fill:#ffff00;fill-opacity:1;fill-rule:nonzero;stroke:none;stroke-width:3;marker:none;visibility:visible;display:inline;overflow:visible;enable-background:accumulate"
         inkscape:connector-curvature="0" />
      <path
         id="rect14374-6"
         d="m 281.43687,928.30665 0,76.28605 -113.47031,0 0,-76.28605 113.47031,0 z m -5.14672,5.14672 -101.96458,0 0,65.08893 101.96458,0 0,-65.08893 z"
         style="color:#000000;fill:#000080;fill-opacity:1;fill-rule:nonzero;stroke:none;stroke-width:3;marker:none;visibility:visible;display:inline;overflow:visible;enable-background:accumulate"
         inkscape:connector-curvature="0" />
      <path
         inkscape:connector-curvature="0"
         id="path36010"
         d="m 201.67335,953.30497 c -3.00923,0.0266 -4.19234,1.60538 -4.19234,1.60538 l -0.0917,1.33936 c -2.02312,-0.62981 -1.55172,6.70722 -0.3486,5.96285 l 0.79811,0.54125 -0.1743,1.87142 c -5.77724,5.39062 -4.65712,11.34924 -3.83458,14.52185 0.0934,0.36023 0.98158,0.53207 0.98158,0.53207 l -0.0917,1.07331 -0.98158,0.79811 1.07331,2.05489 0.53207,-1.24761 c 0.31571,0.5885 0.40656,1.06611 1.15588,1.87142 l 0.26603,10.95331 -0.9724,1.15588 0,2.05494 1.59621,0 0.80728,-0.44956 3.74284,0.62376 c 2.27361,0.1263 2.87841,-1.09775 1.87142,-1.87137 l -3.11903,-2.57779 0.44033,-0.27521 0.44951,-8.37552 0.88984,-0.61463 -0.35777,6.58666 0.98158,1.33935 -0.1743,1.15587 -0.80728,1.33936 2.05489,1.06414 c -2e-5,5e-5 0.20255,0.64931 1.15588,0.54124 1.49601,-0.16959 1.80521,0.39954 3.83457,0.44034 2.26126,0.0455 1.60914,-2.24729 1.15588,-2.2292 l -4.10061,-2.13746 0.35777,-0.53207 -0.18347,-11.31107 1.52282,0.9724 0.44034,-1.77968 c 3.26642,-0.66326 2.23373,-1.51286 2.94473,-1.96316 l -0.98158,-1.68795 0.0459,-1.42191 10.0176,-4.45838 5.25649,-0.18348 c 1.23607,-0.20829 1.81225,-0.59658 0.44951,-1.51364 l -0.22017,-0.0826 0,-1.60538 -0.62381,0 0,1.38521 -0.47703,-0.17429 0,-1.60539 -0.62381,0 0,1.38522 -0.46785,-0.16513 0,-1.61455 -0.62381,0 0,1.38522 -0.47702,-0.1743 0,-1.59622 -0.62381,0 0,1.37605 -0.46785,-0.16512 0,-1.60539 -0.62381,0 0,1.37604 -0.47703,-0.1743 0,-1.59621 -0.62381,0 0,1.37604 -0.3486,-0.12842 c -0.84222,-0.47629 -1.13113,-0.10779 -1.52282,0.0917 -2.9106,-0.58477 -5.81351,-0.78177 -8.72412,-1.15588 0,0 -0.21534,-1.42644 -1.16505,-2.32092 -0.52292,-0.49252 -1.87141,-1.07332 -1.87141,-1.07332 0.33244,-0.76646 0.49955,-1.69488 0.35776,-2.93556 0.88933,-1.17478 1.18431,-1.10797 1.24762,-1.87142 0.13433,-0.80461 -0.99155,-0.83859 -1.51365,-1.15587 l -0.0917,-1.60539 c 0,0 -1.2066,-1.36795 -4.44922,-1.33935 z m 8.45809,16.84278 4.81615,0 -4.99045,2.04572 0.1743,-2.04572 z"
         style="fill:#000000;stroke:none" />
      <path
         sodipodi:nodetypes="sscccccccccccccsccsccsssccscccccccccccccccccccccccssccsscccccccc"
         inkscape:connector-curvature="0"
         id="path36064"
         d="m 251.40348,955.66505 c -1.65385,-1.21863 -6.85989,-0.38194 -7.68497,0.60548 -1.01246,1.21166 -1.35846,4.29272 -1.35846,4.29272 l -2.56166,1.21097 2.78677,0.0776 0.52786,2.56167 0.52786,-0.0776 2.25892,3.24477 -1.05572,1.35845 -3.98998,0 -0.38037,-1.13333 -2.63928,0.60548 3.94385,-1.5184 -0.39634,-1.346 -4.90597,1.73106 c 0,0 -1.9692,-1.4651 -4.09865,-0.13973 -2.41828,1.50515 -0.72193,4.36258 -0.72193,4.36258 l 6.93201,12.89369 c 0,0 0.3198,0.56984 0,0.90047 -0.48057,0.49684 -1.05571,-0.37261 -1.05571,-0.37261 l -3.23701,-3.46988 c 0,0 -0.24452,-0.55902 -0.38037,-0.8306 -0.53546,-1.07055 -2.54836,-0.30495 -3.01965,0.60548 -1.30969,2.52999 -0.40326,3.4636 0.8306,4.14523 0.49435,0.2731 1.58357,-0.60548 1.58357,-0.60548 l 2.8644,3.61737 c 1.79547,1.92586 3.68545,0.67715 4.97583,-0.3726 1.82605,-1.48553 1.28859,-4.22286 1.28859,-4.22286 1.09551,-0.73294 0.88651,-1.98295 1.04796,-3.08952 -0.0831,-0.96686 0.43873,-0.60584 0.83059,-0.52785 0.2329,0.43868 0.53128,0.86356 1.35846,1.2032 l 0.0776,2.18905 0.60548,0.37261 0.14749,10.33203 -2.78677,0.30274 c -1.48998,0.28362 -1.3181,1.67515 -0.68312,2.0338 l 0.68312,0.0776 c -0.0927,1.08833 0.39528,1.74726 1.80868,1.73106 l 6.40415,-0.1475 c 1.37643,-0.43303 0.9593,-1.28953 0.68311,-2.11142 l -0.75297,-0.68311 0.22511,-11.53523 2.0338,-0.67535 -3.16714,-16.06083 0.52786,-0.97809 1.13334,0.45023 0.30274,-4.67308 1.2032,-0.45023 c 1.25723,-1.08645 0.52393,-1.40731 0,-1.80869 l -1.43608,-0.0776 c 0,0 -0.15431,-3.16767 -1.28083,-3.99774 z m -17.45033,12.07085 c 0.81301,-0.0653 1.37398,0.93151 1.37398,0.93151 l -1.9717,1.38951 c 0,0 -0.89515,-1.42728 0,-2.08038 0.21078,-0.15379 0.4101,-0.22557 0.59772,-0.24064 z m 2.43746,3.22148 7.04068,1.76211 0,2.71691 -1.00914,-0.52785 -1.97946,4.15299 -6.17904,-7.5142 2.02604,0.79955 z"
         style="fill:#000000;stroke:none" />
    </g>
  </g>
</svg>
