<?xml version="1.0" encoding="UTF-8" standalone="no"?>
<!-- Created with Inkscape (http://www.inkscape.org/) -->

<svg
   xmlns:dc="http://purl.org/dc/elements/1.1/"
   xmlns:cc="http://creativecommons.org/ns#"
   xmlns:rdf="http://www.w3.org/1999/02/22-rdf-syntax-ns#"
   xmlns:svg="http://www.w3.org/2000/svg"
   xmlns="http://www.w3.org/2000/svg"
   xmlns:sodipodi="http://sodipodi.sourceforge.net/DTD/sodipodi-0.dtd"
   xmlns:inkscape="http://www.inkscape.org/namespaces/inkscape"
   width="1400"
   height="423"
   id="svg2"
   sodipodi:version="0.32"
   inkscape:version="0.48.3.1 r9886"
   sodipodi:docname="lakaxita.svg"
   inkscape:output_extension="org.inkscape.output.svg.inkscape"
   version="1.1">
  <defs
     id="defs4">
    <inkscape:perspective
       sodipodi:type="inkscape:persp3d"
       inkscape:vp_x="0 : 526.18109 : 1"
       inkscape:vp_y="0 : 1000 : 0"
       inkscape:vp_z="744.09448 : 526.18109 : 1"
       inkscape:persp3d-origin="372.04724 : 350.78739 : 1"
       id="perspective7" />
    <inkscape:perspective
       id="perspective2881"
       inkscape:persp3d-origin="0.5 : 0.33333333 : 1"
       inkscape:vp_z="1 : 0.5 : 1"
       inkscape:vp_y="0 : 1000 : 0"
       inkscape:vp_x="0 : 0.5 : 1"
       sodipodi:type="inkscape:persp3d" />
  </defs>
  <sodipodi:namedview
     id="base"
     pagecolor="#ffffff"
     bordercolor="#666666"
     borderopacity="1.0"
     inkscape:pageopacity="0.0"
     inkscape:pageshadow="2"
     inkscape:zoom="0.48037105"
     inkscape:cx="857.57212"
     inkscape:cy="-70.736797"
     inkscape:document-units="px"
     inkscape:current-layer="layer1"
     inkscape:window-width="1398"
     inkscape:window-height="1029"
     inkscape:window-x="0"
     inkscape:window-y="19"
     showgrid="false"
     inkscape:window-maximized="0"
     inkscape:snap-page="false"
     showguides="true"
     inkscape:guide-bbox="true" />
  <metadata
     id="metadata7">
    <rdf:RDF>
      <cc:Work
         rdf:about="">
        <dc:format>image/svg+xml</dc:format>
        <dc:type
           rdf:resource="http://purl.org/dc/dcmitype/StillImage" />
        <dc:title />
      </cc:Work>
    </rdf:RDF>
  </metadata>
  <g
     inkscape:label="Capa 1"
     inkscape:groupmode="layer"
     id="layer1"
     transform="translate(0,-629.36218)">
    <path
       style="fill:#ffffff;stroke:none"
       d="m 1039.5949,629.78273 c -0.517,-0.0706 -0.5608,0.80186 -0.1164,2.51945 0.3944,1.52192 0.4418,3.48105 0.3186,14.65344 -0.078,7.09215 -0.2423,13.28009 -0.3476,13.75571 -0.1315,0.59534 -0.5214,1.04537 -1.2452,1.44797 -5.5731,3.10062 -16.1523,8.95308 -19.3737,10.71497 -2.2052,1.20603 -5.0531,2.75934 -6.3134,3.47511 -1.2598,0.7158 -7.1908,4.01918 -13.17632,7.32672 -15.78541,8.72279 -56.22363,31.12267 -59.97494,33.21642 -3.29847,1.84094 -12.71855,7.0373 -17.89695,9.87514 -3.15027,1.7264 -6.1302,3.3932 -6.60266,3.67784 -0.4726,0.28464 -3.35754,1.89813 -6.42902,3.59098 -8.0653,4.4451 -21.57416,11.89434 -32.08706,17.72311 -8.5294,4.72905 -15.61218,8.63429 -21.92223,12.10503 -3.15031,1.73275 -5.74499,3.35632 -5.79188,3.59096 -0.0471,0.23568 0.84359,1.25666 1.9982,2.28778 2.07111,1.8496 2.12563,1.887 6.95024,3.44617 8.23412,2.661 8.22954,2.65434 13.63988,2.28779 l 4.69141,-0.31855 4.02535,1.39005 c 2.20521,0.7597 5.13966,1.8691 6.54481,2.49052 2.92434,1.29324 2.79688,1.13027 4.89424,7.18191 l 1.1294,3.24345 -0.81085,5.50228 c -0.44343,3.02594 -1.0376,7.38721 -1.33212,9.70138 -0.29463,2.3142 -0.65214,5.02992 -0.81097,6.02356 -0.15872,0.99362 -0.89867,6.10428 -1.62178,11.38103 -0.72297,5.27675 -1.95544,14.18748 -2.7511,19.77925 -0.79566,5.59179 -1.63606,11.62574 -1.85337,13.43716 -0.21731,1.81141 -0.90466,6.97874 -1.53486,11.46791 -0.6302,4.48918 -1.60041,11.51372 -2.17195,15.60909 l -1.04254,7.44256 -1.04253,1.0715 c -0.56459,0.59068 -1.1502,1.07149 -1.30318,1.07149 -0.15291,0 -1.17325,-0.86214 -2.28778,-1.94027 -1.7169,-1.6608 -2.35582,-2.08322 -4.05432,-2.63529 -1.1026,-0.35839 -3.5178,-1.4711 -5.38644,-2.49052 -2.9791,-1.62522 -3.64592,-1.88432 -5.44436,-2.05611 -1.56846,-0.14975 -2.40256,-0.39373 -3.50409,-1.0715 -0.79226,-0.48749 -1.68314,-0.97151 -1.99819,-1.07148 -0.78843,-0.25023 -3.61464,1.90483 -5.21269,3.96743 -0.68057,0.8784 -1.34097,1.5355 -1.44797,1.47692 -0.10698,-0.0586 -1.11686,-0.64357 -2.25883,-1.30317 -1.984,-1.14597 -2.07859,-1.2447 -2.08508,-2.25884 -0.0131,-1.87941 -0.56072,-3.55091 -2.51946,-7.79007 -2.76052,-5.97437 -5.45813,-10.28493 -8.65885,-13.87155 -2.51345,-2.81643 -2.91767,-3.17401 -5.50229,-4.4887 -1.53876,-0.78268 -4.57879,-2.75308 -6.74754,-4.37285 -2.92196,-2.18233 -4.57517,-3.19102 -6.37106,-3.90952 -1.33294,-0.5333 -3.1961,-1.32366 -4.14118,-1.76653 -0.94509,-0.44287 -1.98414,-0.81072 -2.31675,-0.81085 -0.33263,-1.5e-4 -2.25588,0.8048 -4.28599,1.76652 -2.03009,0.96169 -5.19675,2.37458 -7.00816,3.15655 l -3.27243,1.41904 -2.08507,-0.28961 c -2.48115,-0.3641 -2.87509,-0.2485 -3.06969,0.92671 -0.0822,0.4967 -0.33973,2.12353 -0.5792,3.61992 -0.23945,1.49638 -0.5094,2.98634 -0.57917,3.30136 -0.0747,0.3379 -0.78801,0.94734 -1.76652,1.47694 l -1.67965,0.89773 -2.72218,-0.40542 c -1.4964,-0.21102 -3.27819,-0.56749 -3.96743,-0.81087 -2.0363,-0.71906 -2.25604,-0.65105 -2.72219,1.04254 -0.22761,0.82694 -0.57031,2.43044 -0.75294,3.53303 -0.32091,1.93755 -2.97109,8.42718 -3.44616,8.42718 -0.11839,0 -0.32524,-0.28269 -0.4344,-0.6371 -0.1092,-0.3544 -0.71138,-1.84012 -1.33212,-3.30136 -1.09165,-2.5698 -1.11507,-2.7348 -0.92671,-4.89415 l 0.20273,-2.22985 -3.47513,-1.47696 c -1.90553,-0.81559 -3.76341,-1.47691 -4.1412,-1.47691 -0.61278,0 -0.77695,0.25489 -1.47692,2.49052 -1.51236,4.83029 -1.8534,6.37637 -1.8534,8.28238 0,1.05699 -0.16402,3.71717 -0.34751,5.90771 l -0.31856,3.99638 -2.46154,-0.20272 c -1.35224,-0.10234 -2.79175,-0.24709 -3.18553,-0.31853 -1.50684,-0.27355 -1.57949,0.14678 -0.72399,3.3303 0.43197,1.60748 0.82816,3.06217 0.89774,3.24346 0.0794,0.20706 -0.52236,0.45715 -1.62172,0.66606 -1.9334,0.36743 -2.50557,0.76213 -3.79368,2.66427 -0.47999,0.70883 -1.46811,1.96256 -2.22987,2.7801 l -1.39006,1.47692 0,4.6335 0,4.6335 -1.18733,3.56201 c -1.30874,3.93557 -1.33971,4.5494 -0.40544,9.26701 0.26515,1.33886 0.57771,4.75207 0.69503,7.58735 0.23299,5.63071 0.38334,6.15377 2.08507,7.76111 0.52536,0.49622 2.07131,1.63871 3.44618,2.51946 1.37484,0.88077 3.62831,2.6623 5.00997,3.96743 4.84153,4.57335 10.38266,8.94469 14.68239,11.55479 0.2363,0.14345 1.39841,0.38488 2.57738,0.55024 l 2.14299,0.28959 0.37649,1.65069 c 0.41878,1.88768 1.78399,4.03882 4.83621,7.64526 3.77901,4.46523 3.92632,4.58608 7.00817,4.98096 1.47635,0.18923 2.81422,0.41707 2.98283,0.52125 0.16865,0.10422 0.55729,0.97827 0.8398,1.91132 0.35863,1.18454 1.12306,2.49875 2.54843,4.37293 1.85494,2.43899 2.26239,2.78767 4.3439,3.88052 1.26012,0.66167 3.42133,1.68918 4.80726,2.28784 l 2.51948,1.10042 -0.14476,1.85351 c -0.0825,1.02368 -0.24641,5.38326 -0.34751,9.7012 l -0.17367,7.87695 -1.53482,3.30141 -1.50589,3.3304 -1.96924,0.6371 c -1.59423,0.5317 -2.99626,0.6981 -7.67424,0.9267 -3.1503,0.1538 -7.52515,0.4247 -9.73035,0.5792 -11.58604,0.8119 -14.43508,0.9272 -22.06704,0.9845 -7.57155,0.056 -8.83735,0.1479 -14.45072,0.9557 -3.38658,0.4875 -6.86584,0.9692 -7.73217,1.0716 -0.86633,0.1023 -2.68646,0.3785 -4.02535,0.608 -3.50367,0.6009 -15.03873,2.3156 -21.05347,3.1276 -6.35065,0.8576 -15.38637,3.0208 -16.27517,3.9096 -1.01881,1.0187 -0.144,1.0838 18.64985,1.1004 10.04822,0.013 32.88785,0.1189 50.76578,0.2608 17.87793,0.142 57.17739,0.3903 87.34148,0.5501 62.69894,0.3325 172.96709,1.002 272.07349,1.6217 37.4098,0.2338 96.8873,0.4412 132.1706,0.4634 35.2832,0.022 78.1281,0.1284 95.2185,0.2317 l 0,-0.028 c 17.0901,0.1034 31.3189,0.2291 31.5945,0.2608 0.3128,0.035 0.4924,-0.1418 0.4924,-0.4635 0,-0.2836 0.1226,-2.2048 0.2895,-4.286 0.2577,-3.2132 0.2665,-3.8457 -0.087,-4.1991 -0.3389,-0.3389 -3.8145,-0.5604 -18.7077,-1.1582 -10.0584,-0.4041 -23.969,-0.9939 -30.8998,-1.3033 -6.9305,-0.3094 -13.3284,-0.5503 -14.219,-0.5503 l -1.6217,0 -3.562,-3.8805 -3.5911,-3.8805 -0.3183,-2.0851 c -0.455,-2.95145 -0.7846,-6.08312 -1.448,-13.08967 -1.573,-16.60879 -1.5719,-30.83652 0.028,-43.67068 0.8507,-6.82014 0.9349,-19.82974 0.1444,-22.09599 -0.2911,-0.83513 -0.8478,-1.7788 -1.2741,-2.11405 l -0.7817,-0.60813 -0.1447,-15.23265 c -0.1464,-14.14397 -0.1995,-15.43354 -0.7817,-18.36023 -0.5419,-2.72405 -0.6299,-4.11853 -0.6372,-10.30954 -0.018,-4.90969 -0.2015,-9.19218 -0.6082,-13.61091 -0.3313,-3.60122 -0.707,-11.10606 -0.8688,-17.0281 -0.3567,-13.06053 -0.3772,-13.96754 -0.1164,-20.21365 l 0.2027,-5.03894 4.9232,-1.0715 c 7.5464,-1.65367 11.763,-2.68397 15.4354,-3.76471 1.847,-0.5436 3.5064,-0.98462 3.6778,-0.98462 0.7625,0 6.4384,-2.36252 7.037,-2.92488 0.3657,-0.34354 0.8197,-1.1254 0.9847,-1.73757 0.5384,-1.99954 -0.6963,-4.65895 -4.7493,-10.25161 -0.3151,-0.43472 -2.4838,-3.46398 -4.8074,-6.74755 -2.3234,-3.28356 -6.1048,-8.61532 -8.398,-11.84437 -2.2932,-3.22906 -4.3693,-6.20895 -4.6336,-6.60274 -0.2644,-0.3938 -2.0359,-2.91142 -3.9384,-5.58917 -1.9027,-2.67776 -5.6647,-7.9482 -8.3403,-11.72854 -2.6758,-3.78036 -7.5094,-10.60678 -10.7441,-15.17471 -3.2346,-4.56792 -7.1025,-10.06545 -8.6009,-12.1919 -1.4982,-2.12646 -4.8776,-6.86858 -7.5005,-10.57017 -2.6229,-3.70161 -7.5501,-10.70593 -10.9756,-15.55119 -3.4254,-4.84525 -8.2835,-11.6717 -10.7729,-15.1747 -4.8408,-6.81153 -6.657,-9.53335 -7.6161,-11.29416 -0.6332,-1.16192 -1.9987,-3.45349 -6.6607,-11.32311 -1.5618,-2.63611 -3.0897,-4.93707 -3.3884,-5.09685 -0.8308,-0.44473 -3.4527,-0.34938 -7.124,0.26062 -7.063,1.17356 -8.4512,1.27339 -12.018,0.89776 -1.8381,-0.19358 -8.828,-1.09503 -15.5222,-2.02716 -13.9992,-1.94926 -29.7342,-4.1196 -33.0717,-4.54663 -1.2602,-0.16126 -5.7671,-0.80594 -10.02,-1.44797 -4.2528,-0.64201 -9.6553,-1.42372 -12.018,-1.73755 -3.8652,-0.51339 -11.9702,-1.74848 -19.7793,-3.01178 -5.7284,-0.92669 -9.2009,-1.60365 -11.2363,-2.20092 -1.8993,-0.55737 -2.2688,-0.6005 -4.4019,-0.28959 -1.2838,0.18713 -3.5544,0.70814 -5.0388,1.12942 l -2.6932,0.75294 -5.0679,-0.60815 c -4.1202,-0.50714 -6.5731,-0.64081 -13.1765,-0.6371 -5.4225,0.004 -8.2986,0.1038 -8.7169,0.31855 -0.5147,0.26438 -7.7117,4.76846 -11.6705,7.29778 -2.0217,1.29156 -5.939,3.27239 -6.458,3.27239 -0.2937,0 -1.0756,-0.21055 -1.7376,-0.46335 l -1.1873,-0.46335 -0.2029,-2.46151 c -0.1044,-1.36172 -0.62,-4.36258 -1.1583,-6.66065 -0.5386,-2.29805 -0.9845,-4.54461 -0.9845,-4.98101 0,-0.43639 0.3893,-1.50425 0.8685,-2.40362 0.7435,-1.39464 1.0774,-1.74733 2.2879,-2.25883 1.4299,-0.60409 1.5839,-0.79525 1.1873,-1.41902 -0.3339,-0.52509 -9.2281,-4.92069 -10.3674,-5.12581 -0.5549,-0.0998 -1.2171,-0.30049 -1.4769,-0.43438 -0.093,-0.048 -0.1576,-0.0768 -0.2318,-0.0868 z m 145.2025,186.84587 c 2.1384,0.003 4.2776,0.16403 5.3573,0.43438 0.9033,0.22618 2.4143,0.56406 3.3593,0.75294 8.431,1.685 16.3563,5.40464 24.6445,11.58375 5.3164,3.96354 11.0669,9.70162 16.7095,16.70957 2.8092,3.48909 8.0416,11.92708 10.5412,16.99913 0.6015,1.22075 1.2563,2.22988 1.477,2.22988 0.2204,0 1.1402,-0.4517 2.027,-0.9846 0.8871,-0.53292 1.8707,-1.05829 2.201,-1.15838 0.3302,-0.10015 1.091,-0.88281 1.6796,-1.73756 l 1.0716,-1.53486 -0.2029,-2.89593 -0.2026,-2.86698 0.9556,0 c 0.5322,0.003 4.6992,0.2032 9.2671,0.43439 4.5679,0.23119 9.9994,0.48827 12.0471,0.57918 2.0476,0.0909 3.9942,0.2187 4.3438,0.2896 0.744,0.15086 0.7757,0.0565 -1.1583,4.31496 -0.704,1.55013 -2.6431,5.85499 -4.315,9.55659 -1.6716,3.70159 -3.2189,7.1148 -3.4461,7.58735 -0.2272,0.47254 -0.881,1.89646 -1.4479,3.15656 l -1.0426,2.28779 -0.6081,-1.01358 c -1.4484,-2.35075 -3.206,-4.28598 -3.8806,-4.28598 -1.6869,0 -10.9466,5.01994 -10.9466,5.93668 0,0.25496 0.2174,1.24548 0.4634,2.20091 1.334,5.18574 1.8243,7.50248 1.8243,8.36926 0,0.41262 0.1427,1.22591 0.2896,1.79547 0.3259,1.26426 1.0472,7.40877 1.4771,12.59734 0.4585,5.53757 -0.3348,14.1352 -2.0563,22.50143 -1.6185,7.86608 -6.1327,17.94549 -10.57,23.63083 -3.3892,4.34219 -5.1452,6.01293 -9.9911,9.41176 -3.8613,2.70845 -9.1414,4.9383 -13.6399,5.7629 -0.9451,0.17329 -2.2822,0.45714 -2.9539,0.60825 -1.4988,0.33705 -9.7219,0.31069 -10.5122,-0.0294 -0.315,-0.13529 -1.0897,-0.24952 -1.7085,-0.26067 -0.619,-0.0123 -1.5146,-0.14426 -1.9984,-0.28961 -0.4837,-0.14548 -1.5951,-0.42271 -2.4614,-0.60814 -2.6047,-0.55765 -7.087,-2.23537 -10.744,-4.02536 -3.7919,-1.85593 -6.2078,-3.33559 -9.8463,-6.05251 -1.321,-0.98659 -2.9802,-2.24209 -3.7067,-2.78013 -2.1561,-1.59637 -9.748,-9.35813 -12.3947,-12.68415 -1.3514,-1.69853 -3.5977,-4.81051 -4.9809,-6.89233 -1.383,-2.08183 -2.7407,-4.11639 -3.0118,-4.51766 -0.271,-0.4013 -1.4076,-2.40915 -2.5484,-4.48871 -1.4353,-2.61678 -2.231,-3.79367 -2.5772,-3.79367 -1.0707,0 -7.2702,3.60528 -10.8888,6.34208 -3.4325,2.59592 -6.1618,4.24963 -7.0662,4.25705 -1.1476,0.009 -9.5183,-11.94052 -8.8036,-12.56838 0.1409,-0.12398 1.9857,-1.39224 4.1124,-2.80906 10.8156,-7.20636 16.1263,-10.88305 16.3619,-11.3231 0.1575,-0.29341 0.1575,-0.73169 0,-1.12943 -0.1446,-0.36339 -0.4898,-1.42956 -0.753,-2.37466 -0.2631,-0.94511 -0.5671,-2.0388 -0.6951,-2.43261 -0.2136,-0.6575 -0.4151,-1.54613 -1.2162,-5.58913 -0.1557,-0.78759 -0.398,-1.92172 -0.5504,-2.51948 -0.283,-1.11125 -0.5992,-3.30181 -1.1871,-8.36925 -0.4128,-3.5554 -0.4152,-16.27728 0,-19.75029 0.4584,-3.83363 0.8703,-6.16739 1.3901,-8.05071 0.2559,-0.92793 0.5648,-2.30544 0.695,-3.04075 0.2592,-1.46626 1.6659,-5.7004 2.7801,-8.39821 1.8396,-4.4547 4.4685,-9.00987 7.5293,-13.03171 1.658,-2.17832 6.5463,-7.04636 7.9639,-7.93488 0.4263,-0.26716 1.2257,-0.83686 1.7954,-1.2742 2.7457,-2.10798 8.9792,-4.77268 13.2924,-5.67604 0.9451,-0.19796 2.3737,-0.53433 3.1856,-0.75295 0.9938,-0.26768 3.132,-0.4082 5.2707,-0.40542 z m 3.5329,18.56294 c -1.8952,0.0185 -3.7738,0.18594 -4.1122,0.49233 -0.254,0.22976 -0.8712,0.43437 -1.3611,0.43437 -1.3152,0 -4.5711,0.81042 -5.8208,1.44798 -0.6,0.30604 -1.2534,0.55023 -1.4481,0.55023 -0.1946,0 -0.8302,0.29957 -1.39,0.66605 -0.5597,0.36651 -1.5797,1.04544 -2.2877,1.5059 -3.3455,2.17531 -6.0072,4.54861 -7.5585,6.71858 -3.7853,5.29478 -5.2063,7.72826 -6.371,11.00456 -2.0154,5.66904 -3.1671,10.16883 -3.446,13.40819 -0.093,1.06185 -0.2935,1.72582 -0.5504,1.82443 -0.5985,0.22972 -0.5988,13.05605 0,13.55298 0.2441,0.20268 0.4635,1.07892 0.5504,2.22988 0.1685,2.24789 0.6933,5.31504 1.3319,7.79007 0.1427,0.55132 0.3448,1.36232 0.4344,1.79548 0.2488,1.20354 1.0001,1.0168 3.9385,-1.01356 1.4459,-0.99914 5.6813,-3.87835 9.3829,-6.37106 3.7015,-2.49275 11.4817,-7.74246 17.2886,-11.67065 11.8155,-7.99273 11.2054,-7.72202 12.4527,-5.15477 0.3435,0.70711 1.107,1.93575 1.7084,2.75116 2.2464,3.045 4.1848,6.43699 5.3286,9.35386 0.8918,2.2743 1.3111,3.03658 1.7375,3.09867 0.5073,0.0737 2.2086,-0.92242 10.5992,-6.25523 1.2602,-0.80089 5.4192,-3.42903 9.267,-5.8498 3.848,-2.42077 7.1304,-4.61787 7.2689,-4.86517 0.1742,-0.31188 -0.018,-0.89987 -0.6082,-1.94029 -0.4707,-0.82497 -1.2758,-2.24085 -1.7665,-3.15655 -1.6282,-3.03842 -4.7457,-7.80048 -6.5738,-9.99099 -0.3937,-0.47185 -1.2892,-1.56027 -1.9983,-2.4326 -1.6019,-1.97154 -5.6344,-6.00449 -8.2244,-8.22447 -4.5923,-3.93635 -9.53,-6.91175 -14.3928,-8.68781 -4.1351,-1.51028 -4.9955,-1.75769 -6.9503,-1.96922 -0.986,-0.10675 -2.0212,-0.37561 -2.2877,-0.60814 -0.3438,-0.29996 -2.246,-0.45218 -4.1412,-0.43441 z m 52.6771,54.76219 c -0.6322,0 -2.0563,0.73598 -8.5431,4.51766 -0.9451,0.55097 -2.5147,1.46069 -3.504,2.02716 -1.6688,0.95549 -10.037,5.79768 -18.3313,10.59913 -1.9334,1.11921 -3.8186,2.24111 -4.1989,2.49051 -0.6753,0.4424 -0.7176,0.43206 -1.2744,-0.63712 -0.586,-1.12535 -6.576,-6.97802 -9.412,-9.18012 -0.8743,-0.67901 -1.8739,-1.21815 -2.2007,-1.2163 -0.4761,0.003 -7.835,4.15595 -12.0472,6.80546 -0.4725,0.29724 -2.4618,1.48337 -4.4309,2.6353 -11.6889,6.83867 -14.0451,8.32678 -14.0451,8.91949 0,0.55362 1.9319,4.16921 3.7937,7.124 0.4465,0.70881 1.1605,1.85525 1.5927,2.54843 0.8179,1.31144 2.5639,3.65243 4.6914,6.28418 1.6755,2.07259 7.8752,8.27402 9.4408,9.44076 0.6937,0.51688 1.691,1.28039 2.23,1.7086 5.0272,3.99468 15.1724,8.36926 19.4026,8.36926 0.5525,0 1.1997,0.18606 1.4482,0.43438 0.3749,0.37486 1.075,0.45415 4.141,0.37649 2.3169,-0.0587 3.7816,-0.20399 3.9096,-0.40543 0.1127,-0.17663 0.636,-0.40179 1.1872,-0.49232 3.6996,-0.60776 4.8628,-0.9138 6.1684,-1.65067 0.8101,-0.45719 1.6548,-0.83983 1.8824,-0.83983 0.502,0 4.2765,-2.32627 5.7919,-3.562 2.3315,-1.90149 5.3646,-5.25439 6.4869,-7.18193 0.3668,-0.63006 0.8118,-1.2615 0.9846,-1.41901 0.3394,-0.30952 2.9066,-5.68423 3.8516,-8.0507 0.8792,-2.20166 1.4661,-3.94828 1.7954,-5.47332 0.1632,-0.75793 0.4236,-1.95545 0.5793,-2.66427 0.7708,-3.51055 0.8878,-4.35753 1.0136,-6.71857 0.089,-1.668 0.2829,-2.68663 0.5502,-2.95385 0.5774,-0.57863 0.5782,-6.55887 0,-7.38467 -0.2358,-0.3363 -0.4656,-1.61203 -0.5502,-3.01175 -0.165,-2.71573 -0.5624,-5.52127 -1.0426,-7.44256 -0.1779,-0.7088 -0.4002,-1.88712 -0.4924,-2.6353 -0.15,-1.21304 -0.2341,-1.36109 -0.8687,-1.36109 z m -374.50277,80.85458 c 0.17144,-9.5e-4 0.34549,0.0306 0.49232,0.087 0.93335,0.35812 0.24134,3.16261 -1.27422,5.21257 -0.54635,0.73898 -0.57066,0.93812 -0.26064,1.79557 0.3084,0.85284 0.26054,1.17774 -0.37647,2.69321 -0.39662,0.94358 -0.78973,2.369 -0.89775,3.15652 -0.10809,0.78762 -0.4551,2.10021 -0.75295,2.92495 -0.40736,1.12815 -0.47189,1.67414 -0.26062,2.22982 0.15439,0.40633 0.2896,1.39068 0.2896,2.17197 0,1.28545 -0.0705,1.43807 -0.78191,1.70856 -1.49244,0.56739 -2.63181,1.67107 -2.95386,2.86703 -0.322,1.19567 -0.43732,1.33102 -2.54842,3.01183 -0.99392,0.79169 -1.42532,0.98551 -1.99819,0.83973 -2.1593,-0.54972 -2.53892,-0.52007 -3.35928,0.31872 -1.36001,1.39032 -2.48778,2.11402 -3.27243,2.11402 -0.41403,0 -1.54394,-0.3963 -2.51945,-0.8688 -0.97552,-0.4726 -1.94663,-0.8689 -2.17196,-0.8689 -0.4853,0 -2.32983,2.6831 -2.60635,3.7937 -0.26558,1.0671 -0.55015,1.2174 -2.89593,1.6218 -2.77329,0.478 -15.98271,0.3257 -17.49147,-0.2027 -0.62521,-0.2228 -1.62158,-0.297 -2.37466,-0.2028 -0.70882,0.089 -2.13223,0.2249 -3.15657,0.3186 l -1.8534,0.1737 -0.92669,-1.1585 c -0.51143,-0.6364 -0.92671,-1.2603 -0.92671,-1.39 0,-0.1297 -0.26553,-0.7178 -0.57918,-1.3031 -0.31367,-0.5853 -0.70743,-1.6547 -0.86878,-2.37477 -0.28255,-1.26079 -0.25261,-1.32721 0.57918,-2.02715 0.80134,-0.67424 0.8685,-0.86532 0.86878,-2.63527 2.2e-4,-1.04939 -0.16347,-3.9076 -0.34751,-6.37107 -0.26963,-3.61014 -0.24062,-4.66576 0.058,-5.38652 0.46511,-1.12278 1.41062,-1.38234 2.80905,-0.78177 0.58093,0.2495 1.96709,0.53736 3.06969,0.63702 1.10261,0.0993 2.55369,0.42878 3.24345,0.75299 0.71643,0.33678 2.26236,0.68691 3.59097,0.81093 2.76152,0.25774 3.05443,0.37362 6.34211,2.25878 2.66201,1.52631 3.84066,1.7572 5.47331,1.12938 0.44341,-0.17054 1.90456,-0.49428 3.24345,-0.72401 3.11259,-0.53381 8.2805,-2.22118 10.30953,-3.3592 0.86634,-0.48585 2.62045,-1.6963 3.88056,-2.69331 1.71877,-1.35989 2.78773,-1.9549 4.25703,-2.40362 1.83869,-0.56125 1.96913,-0.67568 2.46155,-1.82445 0.33548,-0.78263 0.9734,-1.52929 1.76653,-2.08506 1.6244,-1.13822 3.67782,-3.06645 3.67782,-3.44618 0,-0.30038 0.5283,-0.51805 1.04256,-0.52123 z"
       id="path2919"
       inkscape:connector-curvature="0" />
    <g
       style="font-size:56.60076140999999694px;font-style:normal;font-variant:normal;font-weight:normal;font-stretch:normal;text-indent:0;text-align:start;text-decoration:none;line-height:125%;letter-spacing:0px;word-spacing:0px;text-transform:none;direction:ltr;block-progression:tb;writing-mode:lr-tb;text-anchor:start;baseline-shift:baseline;color:#000000;fill:#ffffff;fill-opacity:1;fill-rule:nonzero;stroke:none;stroke-width:1px;marker:none;visibility:visible;display:inline;overflow:visible;enable-background:accumulate;font-family:Comfortaa;-inkscape-font-specification:Comfortaa"
       id="text6171"
       transform="matrix(1.0443059,0,0,1.0443059,-36.124114,-10.246368)">
      <path
         d="m 67.796194,793.38708 0,-108.37159 11.320152,0 0,108.37159 -11.320152,0"
         style="font-size:150.93536377000000925px;line-height:125%;fill:#ffffff;stroke:none;marker:none;font-family:Titillium Web;-inkscape-font-specification:Titillium Web"
         id="path6178"
         inkscape:connector-curvature="0" />
      <path
         d="m 154.95665,740.71064 0,38.63946 c 0.30181,3.72308 3.21989,5.9368 8.75425,6.64115 l -0.45281,8.90519 c -7.94932,0 -13.93642,-2.01247 -17.9613,-6.03742 -9.05617,4.02495 -18.11228,6.03742 -27.16837,6.03742 -6.94305,0 -12.22578,-1.96216 -15.84821,-5.88648 -3.622459,-3.92431 -5.433681,-9.55923 -5.433675,-16.90476 -6e-6,-7.34549 1.861528,-12.72885 5.584605,-16.15009 3.72306,-3.52178 9.55922,-5.68518 17.50851,-6.49022 l 23.69685,-2.26403 0,-6.49022 c -6e-5,-5.13174 -1.10691,-8.8045 -3.32058,-11.01828 -2.21377,-2.21365 -5.23247,-3.32051 -9.05612,-3.32058 -8.04992,7e-5 -16.40167,0.50319 -25.05527,1.50936 l -4.679,0.4528 -0.45281,-8.60331 c 11.06858,-2.21365 20.87937,-3.3205 29.4324,-3.32058 8.55296,8e-5 14.7413,1.96223 18.56505,5.88648 3.92426,3.92439 5.88642,10.06242 5.88648,18.41411 m -46.48809,30.79082 c -2e-5,9.25738 3.82367,13.88606 11.47109,13.88605 6.84236,10e-6 13.58414,-1.15716 20.22533,-3.47151 l 3.47152,-1.20749 0,-24.90433 -22.33844,2.11309 c -4.52808,0.40253 -7.79835,1.71064 -9.81079,3.92432 -2.0125,2.21375 -3.01873,5.4337 -3.01871,9.65987"
         style="font-size:150.93536377000000925px;line-height:125%;fill:#ffffff;stroke:none;marker:none;font-family:Titillium Web;-inkscape-font-specification:Titillium Web"
         id="path6180"
         inkscape:connector-curvature="0" />
      <path
         d="m 188.4643,793.38708 -11.32015,0 0,-108.37159 11.32015,0 0,63.9966 11.77296,-0.60374 21.58376,-30.48895 12.82951,0 -24.60247,34.71514 25.65901,40.75254 -12.8295,0 -22.48937,-35.017 -11.9239,0.45281 0,34.56419"
         style="font-size:150.93536377000000925px;line-height:125%;fill:#ffffff;stroke:none;marker:none;font-family:Titillium Web;-inkscape-font-specification:Titillium Web"
         id="path6182"
         inkscape:connector-curvature="0" />
      <path
         d="m 302.05967,740.71064 0,38.63946 c 0.3018,3.72308 3.21988,5.9368 8.75425,6.64115 l -0.45281,8.90519 c -7.94933,0 -13.93642,-2.01247 -17.96131,-6.03742 -9.05616,4.02495 -18.11228,6.03742 -27.16836,6.03742 -6.94305,0 -12.22578,-1.96216 -15.84822,-5.88648 -3.62245,-3.92431 -5.43368,-9.55923 -5.43367,-16.90476 -10e-6,-7.34549 1.86153,-12.72885 5.58461,-16.15009 3.72306,-3.52178 9.55922,-5.68518 17.5085,-6.49022 l 23.69685,-2.26403 0,-6.49022 c -5e-5,-5.13174 -1.10691,-8.8045 -3.32057,-11.01828 -2.21377,-2.21365 -5.23247,-3.32051 -9.05613,-3.32058 -8.04991,7e-5 -16.40166,0.50319 -25.05527,1.50936 l -4.67899,0.4528 -0.45281,-8.60331 c 11.06857,-2.21365 20.87936,-3.3205 29.4324,-3.32058 8.55295,8e-5 14.7413,1.96223 18.56505,5.88648 3.92425,3.92439 5.88641,10.06242 5.88648,18.41411 m -46.4881,30.79082 c -1e-5,9.25738 3.82368,13.88606 11.47109,13.88605 6.84237,10e-6 13.58414,-1.15716 20.22534,-3.47151 l 3.47151,-1.20749 0,-24.90433 -22.33843,2.11309 c -4.52809,0.40253 -7.79835,1.71064 -9.8108,3.92432 -2.01249,2.21375 -3.01872,5.4337 -3.01871,9.65987"
         style="font-size:150.93536377000000925px;line-height:125%;fill:#ffffff;stroke:none;marker:none;font-family:Titillium Web;-inkscape-font-specification:Titillium Web"
         id="path6184"
         inkscape:connector-curvature="0" />
      <path
         d="m 316.70041,717.9194 12.3767,0 18.41412,29.58333 18.41411,-29.58333 12.3767,0 -23.99872,37.43197 23.84778,38.03571 -12.3767,0 -18.26317,-29.43239 -18.41412,29.43239 -12.3767,0 23.69685,-37.73384 -23.69685,-37.73384"
         style="font-size:150.93536377000000925px;line-height:125%;fill:#ffffff;stroke:none;marker:none;font-family:Titillium Web;-inkscape-font-specification:Titillium Web"
         id="path6186"
         inkscape:connector-curvature="0" />
      <path
         d="m 392.34496,793.38708 0,-75.46768 11.32015,0 0,75.46768 -11.32015,0 m 0,-92.52337 0,-13.13138 11.32015,0 0,13.13138 -11.32015,0"
         style="font-size:150.93536377000000925px;line-height:125%;fill:#ffffff;stroke:none;marker:none;font-family:Titillium Web;-inkscape-font-specification:Titillium Web"
         id="path6188"
         inkscape:connector-curvature="0" />
      <path
         d="m 464.45434,727.7302 -23.99873,0 0,36.07355 c -2e-5,8.65365 0.60372,14.33888 1.81123,17.0557 1.30808,2.71685 4.32678,4.07526 9.05612,4.07525 l 13.43325,-0.90561 0.75467,9.35799 c -6.74182,1.10686 -11.87362,1.66029 -15.3954,1.66029 -7.84867,0 -13.28234,-1.91184 -16.30102,-5.73554 -3.01873,-3.82369 -4.52808,-11.11889 -4.52806,-21.88563 l 0,-39.696 -10.71641,0 0,-9.8108 10.71641,0 0,-23.09311 11.16921,0 0,23.09311 23.99873,0 0,9.8108"
         style="font-size:150.93536377000000925px;line-height:125%;fill:#ffffff;stroke:none;marker:none;font-family:Titillium Web;-inkscape-font-specification:Titillium Web"
         id="path6190"
         inkscape:connector-curvature="0" />
      <path
         d="m 531.70546,740.71064 0,38.63946 c 0.30181,3.72308 3.21989,5.9368 8.75425,6.64115 l -0.4528,8.90519 c -7.94933,0 -13.93643,-2.01247 -17.96131,-6.03742 -9.05617,4.02495 -18.11228,6.03742 -27.16837,6.03742 -6.94304,0 -12.22577,-1.96216 -15.84821,-5.88648 -3.62246,-3.92431 -5.43368,-9.55923 -5.43367,-16.90476 -10e-6,-7.34549 1.86153,-12.72885 5.58461,-16.15009 3.72305,-3.52178 9.55922,-5.68518 17.5085,-6.49022 l 23.69685,-2.26403 0,-6.49022 c -5e-5,-5.13174 -1.10691,-8.8045 -3.32058,-11.01828 -2.21376,-2.21365 -5.23247,-3.32051 -9.05612,-3.32058 -8.04992,7e-5 -16.40167,0.50319 -25.05527,1.50936 l -4.679,0.4528 -0.4528,-8.60331 c 11.06857,-2.21365 20.87936,-3.3205 29.43239,-3.32058 8.55296,8e-5 14.7413,1.96223 18.56505,5.88648 3.92426,3.92439 5.88642,10.06242 5.88648,18.41411 m -46.48809,30.79082 c -2e-5,9.25738 3.82368,13.88606 11.47109,13.88605 6.84237,10e-6 13.58414,-1.15716 20.22534,-3.47151 l 3.47151,-1.20749 0,-24.90433 -22.33843,2.11309 c -4.52809,0.40253 -7.79835,1.71064 -9.8108,3.92432 -2.01249,2.21375 -3.01873,5.4337 -3.01871,9.65987"
         style="font-size:150.93536377000000925px;line-height:125%;fill:#ffffff;stroke:none;marker:none;font-family:Titillium Web;-inkscape-font-specification:Titillium Web"
         id="path6192"
         inkscape:connector-curvature="0" />
      <path
         d="m 96.021107,1017.5261 c -12.074857,0 -20.527229,-1.6603 -25.357141,-4.9809 -4.729318,-3.2199 -7.09397,-9.1567 -7.093962,-17.81034 -8e-6,-4.12557 0.905603,-7.49646 2.716836,-10.11267 1.811212,-2.51559 4.880228,-5.38336 9.207057,-8.60331 -2.817477,-1.91184 -4.226205,-5.38335 -4.22619,-10.41454 -1.5e-5,-1.71059 1.257778,-4.88023 3.773384,-9.50893 l 1.358418,-2.41497 c -7.949274,-3.62242 -11.923902,-11.21949 -11.923893,-22.79124 -9e-6,-17.20656 9.408286,-25.80987 28.224913,-25.80995 4.82989,8e-5 9.307631,0.5032 13.433251,1.50936 l 2.26403,0.4528 22.33843,-0.60374 0,9.65987 -14.33886,-0.30188 c 3.32052,3.32065 4.9808,8.35182 4.98087,15.09354 -7e-5,9.45866 -2.36472,16.09981 -7.09396,19.92347 -4.62874,3.7231 -11.97426,5.58463 -22.036567,5.58461 -2.71687,2e-5 -5.182146,-0.20122 -7.395833,-0.60374 -1.811252,4.42746 -2.716863,7.29522 -2.716837,8.60331 -2.6e-5,3.11935 0.955897,5.08151 2.867772,5.88648 1.911817,0.70438 7.697667,1.05656 17.357565,1.05655 9.65981,10e-6 16.60283,1.50936 20.82908,4.52806 4.22612,3.01871 6.33921,8.90518 6.33929,17.65944 -8e-5,15.99912 -11.16928,23.99872 -33.507653,23.99872 M 74.73922,993.82925 c -1.8e-5,5.33303 1.459022,9.00575 4.377126,11.01825 3.018681,2.1131 8.502661,3.1696 16.451955,3.1697 8.049839,-10e-5 13.785379,-1.1069 17.206629,-3.3206 3.52177,-2.2137 5.28268,-5.93681 5.28274,-11.16922 -6e-5,-5.13181 -1.25786,-8.45239 -3.77338,-9.96174 -2.51565,-1.50935 -7.4462,-2.26403 -14.79167,-2.26403 l -16.301019,-0.75467 c -3.320602,2.41496 -5.58463,4.52805 -6.792092,6.33928 -1.106878,1.81122 -1.660307,4.12556 -1.660289,6.94303 m 1.056548,-62.94005 c -2e-5,5.93684 1.308085,10.16302 3.924319,12.67857 2.716811,2.51563 7.144243,3.77342 13.282312,3.77339 6.137995,3e-5 10.515121,-1.25776 13.131381,-3.77339 2.61616,-2.51555 3.92426,-6.74173 3.92432,-12.67857 -6e-5,-6.03736 -1.30816,-10.31385 -3.92432,-12.8295 -2.61626,-2.51553 -6.993386,-3.77332 -13.131381,-3.77339 -6.138069,7e-5 -10.565501,1.30817 -13.282312,3.92432 -2.616234,2.51565 -3.924339,6.74184 -3.924319,12.67857"
         style="font-size:150.93536377000000925px;line-height:125%;fill:#ffffff;stroke:none;marker:none;font-family:Titillium Web;-inkscape-font-specification:Titillium Web"
         id="path6194"
         inkscape:connector-curvature="0" />
      <path
         d="m 197.99681,929.37985 0,38.63945 c 0.30181,3.72308 3.21989,5.9368 8.75426,6.64116 l -0.45281,8.90518 c -7.94933,0 -13.93642,-2.01247 -17.96131,-6.03741 -9.05617,4.02494 -18.11228,6.03741 -27.16836,6.03741 -6.94305,0 -12.22578,-1.96216 -15.84822,-5.88648 -3.62245,-3.92431 -5.43368,-9.55922 -5.43367,-16.90476 -1e-5,-7.34549 1.86153,-12.72884 5.58461,-16.15008 3.72306,-3.52178 9.55922,-5.68519 17.5085,-6.49022 l 23.69685,-2.26403 0,-6.49022 c -5e-5,-5.13175 -1.10691,-8.8045 -3.32058,-11.01828 -2.21376,-2.21366 -5.23247,-3.32051 -9.05612,-3.32058 -8.04992,7e-5 -16.40166,0.50318 -25.05527,1.50935 l -4.67899,0.45281 -0.45281,-8.60332 c 11.06857,-2.21364 20.87936,-3.3205 29.4324,-3.32058 8.55295,8e-5 14.7413,1.96224 18.56505,5.88648 3.92425,3.92439 5.88641,10.06242 5.88647,18.41412 m -46.48809,30.79081 c -1e-5,9.25738 3.82368,13.88606 11.47109,13.88606 6.84237,0 13.58414,-1.15717 20.22534,-3.47152 l 3.47151,-1.20748 0,-24.90434 -22.33843,2.1131 c -4.52809,0.40253 -7.79835,1.71063 -9.8108,3.92432 -2.01249,2.21375 -3.01872,5.4337 -3.01871,9.65986"
         style="font-size:150.93536377000000925px;line-height:125%;fill:#ffffff;stroke:none;marker:none;font-family:Titillium Web;-inkscape-font-specification:Titillium Web"
         id="path6196"
         inkscape:connector-curvature="0" />
      <path
         d="m 215.65625,916.70128 0,-10.11267 55.99702,0 0,10.11267 -42.2619,55.24234 42.2619,0 0,10.11267 -55.99702,0 0,-10.11267 42.2619,-55.24234 -42.2619,0"
         style="font-size:150.93536377000000925px;line-height:125%;fill:#ffffff;stroke:none;marker:none;font-family:Titillium Web;-inkscape-font-specification:Titillium Web"
         id="path6198"
         inkscape:connector-curvature="0" />
      <path
         d="m 327.96395,916.39941 -23.99872,0 0,36.07355 c -3e-5,8.65365 0.60371,14.33887 1.81122,17.05569 1.30808,2.71685 4.32678,4.07527 9.05612,4.07526 l 13.43325,-0.90561 0.75468,9.35799 c -6.74183,1.10686 -11.87362,1.66029 -15.39541,1.66029 -7.84867,0 -13.28233,-1.91185 -16.30102,-5.73555 -3.01872,-3.82368 -4.52807,-11.11889 -4.52806,-21.88562 l 0,-39.696 -10.71641,0 0,-9.8108 10.71641,0 0,-23.09311 11.16922,0 0,23.09311 23.99872,0 0,9.8108"
         style="font-size:150.93536377000000925px;line-height:125%;fill:#ffffff;stroke:none;marker:none;font-family:Titillium Web;-inkscape-font-specification:Titillium Web"
         id="path6200"
         inkscape:connector-curvature="0" />
      <path
         d="m 393.25295,972.6983 4.37712,-0.45281 0.30187,8.90519 c -11.47114,1.60997 -21.28193,2.41496 -29.43239,2.41496 -10.86738,0 -18.56507,-3.11933 -23.09311,-9.35799 -4.52807,-6.33927 -6.7921,-16.15006 -6.79209,-29.4324 -10e-6,-26.46393 10.51514,-39.69592 31.54549,-39.696 10.16293,8e-5 17.76,2.86785 22.79124,8.60332 5.03111,5.63498 7.5467,14.54016 7.54676,26.71556 l -0.60374,8.60332 -49.80867,0 c -2e-5,8.35178 1.50934,14.54012 4.52806,18.56504 3.01868,4.02496 8.25111,6.03743 15.69728,6.03742 7.54672,10e-6 15.19411,-0.30186 22.94218,-0.90561 m -4.07526,-32.75298 c -6e-5,-9.25731 -1.50941,-15.79784 -4.52806,-19.62159 -2.91813,-3.82363 -7.74806,-5.73548 -14.48979,-5.73555 -6.64119,7e-5 -11.67237,2.01254 -15.09354,6.03742 -3.3206,4.025 -5.0312,10.4649 -5.1318,19.31972 l 39.24319,0"
         style="font-size:150.93536377000000925px;line-height:125%;fill:#ffffff;stroke:none;marker:none;font-family:Titillium Web;-inkscape-font-specification:Titillium Web"
         id="path6202"
         inkscape:connector-curvature="0" />
      <path
         d="m 456.78963,916.39941 -23.99872,0 0,36.07355 c -2e-5,8.65365 0.60372,14.33887 1.81123,17.05569 1.30807,2.71685 4.32678,4.07527 9.05612,4.07526 l 13.43324,-0.90561 0.75468,9.35799 c -6.74182,1.10686 -11.87362,1.66029 -15.39541,1.66029 -7.84866,0 -13.28233,-1.91185 -16.30101,-5.73555 -3.01873,-3.82368 -4.52808,-11.11889 -4.52807,-21.88562 l 0,-39.696 -10.71641,0 0,-9.8108 10.71641,0 0,-23.09311 11.16922,0 0,23.09311 23.99872,0 0,9.8108"
         style="font-size:150.93536377000000925px;line-height:125%;fill:#ffffff;stroke:none;marker:none;font-family:Titillium Web;-inkscape-font-specification:Titillium Web"
         id="path6204"
         inkscape:connector-curvature="0" />
      <path
         d="m 463.21384,906.58861 12.3767,0 18.41411,29.58333 18.41412,-29.58333 12.3767,0 -23.99873,37.43197 23.84779,38.03571 -12.3767,0 -18.26318,-29.4324 -18.41411,29.4324 -12.3767,0 23.69685,-37.73384 -23.69685,-37.73384"
         style="font-size:150.93536377000000925px;line-height:125%;fill:#ffffff;stroke:none;marker:none;font-family:Titillium Web;-inkscape-font-specification:Titillium Web"
         id="path6206"
         inkscape:connector-curvature="0" />
      <path
         d="m 588.40764,972.6983 4.37713,-0.45281 0.30187,8.90519 c -11.47115,1.60997 -21.28193,2.41496 -29.4324,2.41496 -10.86737,0 -18.56507,-3.11933 -23.09311,-9.35799 -4.52807,-6.33927 -6.7921,-16.15006 -6.79209,-29.4324 -10e-6,-26.46393 10.51514,-39.69592 31.54549,-39.696 10.16293,8e-5 17.76,2.86785 22.79124,8.60332 5.03111,5.63498 7.5467,14.54016 7.54677,26.71556 l -0.60374,8.60332 -49.80867,0 c -2e-5,8.35178 1.50933,14.54012 4.52806,18.56504 3.01868,4.02496 8.2511,6.03743 15.69728,6.03742 7.54672,10e-6 15.1941,-0.30186 22.94217,-0.90561 m -4.07525,-32.75298 c -6e-5,-9.25731 -1.50941,-15.79784 -4.52806,-19.62159 -2.91814,-3.82363 -7.74807,-5.73548 -14.4898,-5.73555 -6.64119,7e-5 -11.67236,2.01254 -15.09354,6.03742 -3.32059,4.025 -5.03119,10.4649 -5.1318,19.31972 l 39.2432,0"
         style="font-size:150.93536377000000925px;line-height:125%;fill:#ffffff;stroke:none;marker:none;font-family:Titillium Web;-inkscape-font-specification:Titillium Web"
         id="path6208"
         inkscape:connector-curvature="0" />
      <path
         d="m 666.72185,929.37985 0,38.63945 c 0.30181,3.72308 3.21989,5.9368 8.75425,6.64116 l -0.4528,8.90518 c -7.94933,0 -13.93643,-2.01247 -17.96131,-6.03741 -9.05617,4.02494 -18.11228,6.03741 -27.16837,6.03741 -6.94304,0 -12.22578,-1.96216 -15.84821,-5.88648 -3.62246,-3.92431 -5.43368,-9.55922 -5.43367,-16.90476 -1e-5,-7.34549 1.86152,-12.72884 5.5846,-16.15008 3.72306,-3.52178 9.55922,-5.68519 17.50851,-6.49022 l 23.69685,-2.26403 0,-6.49022 c -5e-5,-5.13175 -1.10691,-8.8045 -3.32058,-11.01828 -2.21376,-2.21366 -5.23247,-3.32051 -9.05612,-3.32058 -8.04992,7e-5 -16.40167,0.50318 -25.05527,1.50935 l -4.679,0.45281 -0.4528,-8.60332 c 11.06857,-2.21364 20.87936,-3.3205 29.43239,-3.32058 8.55296,8e-5 14.7413,1.96224 18.56505,5.88648 3.92426,3.92439 5.88642,10.06242 5.88648,18.41412 m -46.48809,30.79081 c -2e-5,9.25738 3.82367,13.88606 11.47109,13.88606 6.84236,0 13.58414,-1.15717 20.22534,-3.47152 l 3.47151,-1.20748 0,-24.90434 -22.33843,2.1131 c -4.52809,0.40253 -7.79835,1.71063 -9.8108,3.92432 -2.01249,2.21375 -3.01873,5.4337 -3.01871,9.65986"
         style="font-size:150.93536377000000925px;line-height:125%;fill:#ffffff;stroke:none;marker:none;font-family:Titillium Web;-inkscape-font-specification:Titillium Web"
         id="path6210"
         inkscape:connector-curvature="0" />
    </g>
  </g>
</svg>
