<?xml version="1.0" encoding="UTF-8" standalone="no"?>
<!-- Created with Inkscape (http://www.inkscape.org/) -->

<svg
   xmlns:dc="http://purl.org/dc/elements/1.1/"
   xmlns:cc="http://creativecommons.org/ns#"
   xmlns:rdf="http://www.w3.org/1999/02/22-rdf-syntax-ns#"
   xmlns:svg="http://www.w3.org/2000/svg"
   xmlns="http://www.w3.org/2000/svg"
   xmlns:sodipodi="http://sodipodi.sourceforge.net/DTD/sodipodi-0.dtd"
   xmlns:inkscape="http://www.inkscape.org/namespaces/inkscape"
   width="744.09448"
   height="423"
   id="svg2"
   sodipodi:version="0.32"
   inkscape:version="0.48.3.1 r9886"
   sodipodi:docname="lakaxita.svg"
   inkscape:output_extension="org.inkscape.output.svg.inkscape"
   version="1.1">
  <defs
     id="defs4">
    <inkscape:perspective
       sodipodi:type="inkscape:persp3d"
       inkscape:vp_x="0 : 526.18109 : 1"
       inkscape:vp_y="0 : 1000 : 0"
       inkscape:vp_z="744.09448 : 526.18109 : 1"
       inkscape:persp3d-origin="372.04724 : 350.78739 : 1"
       id="perspective7" />
    <inkscape:perspective
       id="perspective2881"
       inkscape:persp3d-origin="0.5 : 0.33333333 : 1"
       inkscape:vp_z="1 : 0.5 : 1"
       inkscape:vp_y="0 : 1000 : 0"
       inkscape:vp_x="0 : 0.5 : 1"
       sodipodi:type="inkscape:persp3d" />
  </defs>
  <sodipodi:namedview
     id="base"
     pagecolor="#ffffff"
     bordercolor="#666666"
     borderopacity="1.0"
     inkscape:pageopacity="0.0"
     inkscape:pageshadow="2"
     inkscape:zoom="0.40824624"
     inkscape:cx="392.85714"
     inkscape:cy="-22.857143"
     inkscape:document-units="px"
     inkscape:current-layer="layer1"
     inkscape:window-width="1398"
     inkscape:window-height="1029"
     inkscape:window-x="0"
     inkscape:window-y="19"
     showgrid="false"
     inkscape:window-maximized="0"
     inkscape:snap-page="true"
     showguides="true"
     inkscape:guide-bbox="true">
    <sodipodi:guide
       orientation="0,1"
       position="0,425.80818"
       id="guide35356" />
  </sodipodi:namedview>
  <metadata
     id="metadata7">
    <rdf:RDF>
      <cc:Work
         rdf:about="">
        <dc:format>image/svg+xml</dc:format>
        <dc:type
           rdf:resource="http://purl.org/dc/dcmitype/StillImage" />
        <dc:title />
      </cc:Work>
    </rdf:RDF>
  </metadata>
  <g
     inkscape:label="Capa 1"
     inkscape:groupmode="layer"
     id="layer1"
     transform="translate(0,-629.36218)">
    <path
       style="fill:#ffffff"
       d="M 377.5 -0.21875 C 376.94215 -0.29509074 376.89472 0.64653125 377.375 2.5 C 377.80056 4.14229 377.85176 6.25638 377.71875 18.3125 C 377.63429 25.96561 377.45736 32.64301 377.34375 33.15625 C 377.2015 33.79868 376.7809 34.28431 376 34.71875 C 369.9859 38.06463 358.57018 44.37999 355.09375 46.28125 C 352.71411 47.58267 349.64105 49.25885 348.28125 50.03125 C 346.92146 50.80365 340.52151 54.36834 334.0625 57.9375 C 317.02856 67.35024 273.3918 91.52189 269.34375 93.78125 C 265.78444 95.76782 255.61929 101.3752 250.03125 104.4375 C 246.63177 106.30045 243.41617 108.09909 242.90625 108.40625 C 242.39633 108.71341 239.28324 110.45451 235.96875 112.28125 C 227.26548 117.07795 212.6882 125.11643 201.34375 131.40625 C 192.13969 136.50936 184.49666 140.72349 177.6875 144.46875 C 174.28802 146.33858 171.4881 148.09055 171.4375 148.34375 C 171.38666 148.59808 172.34781 149.69981 173.59375 150.8125 C 175.82869 152.8084 175.88752 152.84876 181.09375 154.53125 C 189.97917 157.40274 189.97423 157.39554 195.8125 157 L 200.875 156.65625 L 205.21875 158.15625 C 207.59839 158.97604 210.76499 160.17319 212.28125 160.84375 C 215.43686 162.2393 215.2993 162.06345 217.5625 168.59375 L 218.78125 172.09375 L 217.90625 178.03125 C 217.42782 181.29654 216.78666 186.00277 216.46875 188.5 C 216.15083 190.99723 215.76507 193.92778 215.59375 195 C 215.42243 196.07222 214.62394 201.58712 213.84375 207.28125 C 213.06355 212.97537 211.73355 222.59093 210.875 228.625 C 210.01645 234.65907 209.1095 241.1703 208.875 243.125 C 208.64051 245.0797 207.89879 250.65575 207.21875 255.5 C 206.53871 260.34426 205.49176 267.92443 204.875 272.34375 L 203.75 280.375 L 202.625 281.53125 C 202.01576 282.16865 201.38385 282.6875 201.21875 282.6875 C 201.05364 282.6875 199.95269 281.75716 198.75 280.59375 C 196.8973 278.80157 196.20787 278.34575 194.375 277.75 C 193.18518 277.36327 190.57895 276.16256 188.5625 275.0625 C 185.34777 273.30874 184.62821 273.02913 182.6875 272.84375 C 180.99499 272.68208 180.0949 272.41887 178.90625 271.6875 C 178.05133 271.16146 177.08996 270.63915 176.75 270.53125 C 175.89923 270.26123 172.84945 272.58676 171.125 274.8125 C 170.3906 275.7604 169.67796 276.46945 169.5625 276.40625 C 169.44704 276.34305 168.35731 275.71179 167.125 275 C 164.98407 273.76339 164.882 273.65686 164.875 272.5625 C 164.86162 270.53442 164.26992 268.73071 162.15625 264.15625 C 159.17738 257.70932 156.2664 253.05779 152.8125 249.1875 C 150.10024 246.14827 149.66407 245.76241 146.875 244.34375 C 145.21452 243.49915 141.93405 241.3729 139.59375 239.625 C 136.44066 237.27006 134.65669 236.18157 132.71875 235.40625 C 131.28037 234.83078 129.26984 233.9779 128.25 233.5 C 127.23016 233.0221 126.10893 232.62513 125.75 232.625 C 125.39107 232.62486 123.31568 233.49347 121.125 234.53125 C 118.93432 235.56902 115.5172 237.09365 113.5625 237.9375 L 110.03125 239.46875 L 107.78125 239.15625 C 105.10384 238.76336 104.67874 238.88809 104.46875 240.15625 C 104.38 240.69226 104.10215 242.44775 103.84375 244.0625 C 103.58535 245.67725 103.29405 247.28505 103.21875 247.625 C 103.13801 247.98961 102.36841 248.64727 101.3125 249.21875 L 99.5 250.1875 L 96.5625 249.75 C 94.947748 249.5223 93.025009 249.13764 92.28125 248.875 C 90.083884 248.09907 89.846776 248.17245 89.34375 250 C 89.098128 250.89236 88.728321 252.62269 88.53125 253.8125 C 88.184952 255.90329 85.32515 262.90625 84.8125 262.90625 C 84.684642 262.90625 84.461539 262.60119 84.34375 262.21875 C 84.225962 261.83631 83.576079 260.23307 82.90625 258.65625 C 81.728263 255.8832 81.702989 255.70515 81.90625 253.375 L 82.125 250.96875 L 78.375 249.375 C 76.318755 248.49488 74.313903 247.78125 73.90625 247.78125 C 73.245008 247.78125 73.06783 248.05629 72.3125 250.46875 C 70.680532 255.68112 70.3125 257.34949 70.3125 259.40625 C 70.3125 260.54685 70.135548 263.41746 69.9375 265.78125 L 69.59375 270.09375 L 66.9375 269.875 C 65.478302 269.7647 63.924934 269.60835 63.5 269.53125 C 61.873983 269.23607 61.795579 269.68963 62.71875 273.125 C 63.184886 274.85962 63.61243 276.42937 63.6875 276.625 C 63.773238 276.84843 63.123834 277.1183 61.9375 277.34375 C 59.851186 277.74024 59.233753 278.16615 57.84375 280.21875 C 57.325778 280.98363 56.259537 282.33656 55.4375 283.21875 L 53.9375 284.8125 L 53.9375 289.8125 L 53.9375 294.8125 L 52.65625 298.65625 C 51.243989 302.90312 51.21057 303.56549 52.21875 308.65625 C 52.504874 310.10102 52.842151 313.78422 52.96875 316.84375 C 53.220172 322.91985 53.382399 323.48427 55.21875 325.21875 C 55.785669 325.75422 57.453888 326.98707 58.9375 327.9375 C 60.421109 328.88793 62.852817 330.81038 64.34375 332.21875 C 69.568242 337.15383 75.547669 341.87094 80.1875 344.6875 C 80.442461 344.84227 81.69652 345.10281 82.96875 345.28125 L 85.28125 345.59375 L 85.6875 347.375 C 86.139411 349.412 87.612608 351.73324 90.90625 355.625 C 94.98417 360.44342 95.143131 360.57389 98.46875 361 C 100.06186 361.20412 101.50556 361.45004 101.6875 361.5625 C 101.86945 361.67493 102.28888 362.61807 102.59375 363.625 C 102.98074 364.90311 103.80564 366.32134 105.34375 368.34375 C 107.34541 370.97561 107.78508 371.35195 110.03125 372.53125 C 111.39104 373.24525 113.72319 374.3541 115.21875 375 L 117.9375 376.1875 L 117.78125 378.1875 C 117.69224 379.2923 117.51535 383.99675 117.40625 388.65625 L 117.21875 397.15625 L 115.5625 400.71875 L 113.9375 404.3125 L 111.8125 405 C 110.09218 405.5737 108.57925 405.7534 103.53125 406 C 100.13177 406.1661 95.410884 406.4583 93.03125 406.625 C 80.528781 407.5011 77.454378 407.6255 69.21875 407.6875 C 61.048308 407.7486 59.682395 407.84695 53.625 408.71875 C 49.970563 409.24475 46.216106 409.7646 45.28125 409.875 C 44.346394 409.9853 42.382278 410.28355 40.9375 410.53125 C 37.156679 411.17965 24.709226 413.02985 18.21875 413.90625 C 11.365772 414.83165 1.6153413 417.1659 0.65625 418.125 C -0.44316554 419.2244 0.50075266 419.2945 20.78125 419.3125 C 31.624258 419.3222 56.270469 419.44045 75.5625 419.59375 C 94.854531 419.74705 137.26251 420.015 169.8125 420.1875 C 237.47069 420.5462 356.46075 421.2688 463.40625 421.9375 C 503.77504 422.1898 567.95711 422.4135 606.03125 422.4375 C 644.10539 422.4614 690.33909 422.576 708.78125 422.6875 L 708.78125 422.65625 C 727.22341 422.76785 742.57755 422.9035 742.875 422.9375 C 743.21257 422.9759 743.40625 422.7847 743.40625 422.4375 C 743.40625 422.1315 743.53867 420.0582 743.71875 417.8125 C 743.99679 414.3451 744.00636 413.66255 743.625 413.28125 C 743.25931 412.91555 739.50875 412.67655 723.4375 412.03125 C 712.58359 411.59535 697.5726 410.9589 690.09375 410.625 C 682.6149 410.2912 675.71103 410.03125 674.75 410.03125 L 673 410.03125 L 669.15625 405.84375 L 665.28125 401.65625 L 664.9375 399.40625 C 664.44655 396.22135 664.09105 392.84205 663.375 385.28125 C 661.67759 367.35871 661.67876 352.00553 663.40625 338.15625 C 664.32424 330.79666 664.41522 316.75802 663.5625 314.3125 C 663.2483 313.41133 662.6476 312.39301 662.1875 312.03125 L 661.34375 311.375 L 661.1875 294.9375 C 661.0301 279.67476 660.97207 278.28319 660.34375 275.125 C 659.75895 272.18548 659.66425 270.68072 659.65625 264 C 659.64967 258.70196 659.43878 254.08074 659 249.3125 C 658.64243 245.42642 658.23701 237.32796 658.0625 230.9375 C 657.67764 216.8439 657.65543 215.86517 657.9375 209.125 L 658.15625 203.6875 L 663.46875 202.53125 C 671.61198 200.74676 676.16217 199.63498 680.125 198.46875 C 682.11824 197.88214 683.90888 197.40625 684.09375 197.40625 C 684.91651 197.40625 691.04153 194.85684 691.6875 194.25 C 692.08205 193.87931 692.57212 193.03561 692.75 192.375 C 693.331 190.2173 691.99865 187.34753 687.625 181.3125 C 687.28506 180.84341 684.94477 177.57454 682.4375 174.03125 C 679.9302 170.48797 675.8496 164.73446 673.375 161.25 C 670.90043 157.76554 668.66031 154.54994 668.375 154.125 C 668.0897 153.70007 666.1781 150.9833 664.125 148.09375 C 662.07193 145.20419 658.0123 139.51687 655.125 135.4375 C 652.2377 131.35813 647.02171 123.99174 643.53125 119.0625 C 640.0408 114.13326 635.86686 108.2009 634.25 105.90625 C 632.63315 103.6116 628.98663 98.49438 626.15625 94.5 C 623.32591 90.50561 618.00891 82.94725 614.3125 77.71875 C 610.61606 72.49024 605.37392 65.12385 602.6875 61.34375 C 597.46383 53.99344 595.50393 51.05634 594.46875 49.15625 C 593.78568 47.90243 592.31198 45.42961 587.28125 36.9375 C 585.5961 34.09289 583.94718 31.60992 583.625 31.4375 C 582.72834 30.95761 579.89931 31.06048 575.9375 31.71875 C 568.31581 32.98513 566.81792 33.09286 562.96875 32.6875 C 560.98544 32.47863 553.44264 31.50586 546.21875 30.5 C 531.11246 28.39657 514.13263 26.05456 510.53125 25.59375 C 509.17146 25.41977 504.30804 24.72406 499.71875 24.03125 C 495.12945 23.33845 489.2996 22.49491 486.75 22.15625 C 482.5793 21.60227 473.83303 20.26946 465.40625 18.90625 C 459.22477 17.90627 455.47756 17.17576 453.28125 16.53125 C 451.2317 15.92981 450.83313 15.88325 448.53125 16.21875 C 447.14581 16.42068 444.69565 16.98291 443.09375 17.4375 L 440.1875 18.25 L 434.71875 17.59375 C 430.27267 17.04648 427.62586 16.90225 420.5 16.90625 C 414.64864 16.90929 411.54511 17.01819 411.09375 17.25 C 410.53821 17.53531 402.77203 22.39562 398.5 25.125 C 396.31852 26.51874 392.09154 28.65625 391.53125 28.65625 C 391.21423 28.65625 390.37054 28.42905 389.65625 28.15625 L 388.375 27.65625 L 388.15625 25 C 388.0436 23.53056 387.48725 20.29234 386.90625 17.8125 C 386.32521 15.33267 385.84375 12.90842 385.84375 12.4375 C 385.84375 11.96659 386.26398 10.81427 386.78125 9.84375 C 387.58338 8.3388 387.94355 7.95821 389.25 7.40625 C 390.79287 6.7544 390.95921 6.5481 390.53125 5.875 C 390.17097 5.30838 380.57309 0.5651 379.34375 0.34375 C 378.74495 0.23592 378.03045 0.01949 377.75 -0.125 C 377.64936 -0.17684875 377.57969 -0.20784418 377.5 -0.21875 z M 401.96875 118.28125 L 484.8125 130.09375 L 479.4375 139.40625 L 455.34375 135.75 L 437.65625 166.375 L 452.84375 185.46875 L 447.40625 194.90625 L 396 128.65625 L 401.96875 118.28125 z M 405.78125 127.5625 C 405.90363 127.71803 406.27187 128.10487 406.875 128.75 C 407.47822 129.39526 408.20123 130.21249 409.0625 131.21875 C 409.94221 132.19332 410.90862 133.30097 411.9375 134.53125 C 412.98482 135.72985 414.00293 136.94432 415 138.15625 L 432.125 159.5 L 446.65625 134.34375 L 419.46875 130.1875 C 417.90225 129.96186 416.33001 129.71346 414.75 129.4375 C 413.18844 129.12988 411.78326 128.85002 410.53125 128.59375 C 409.2475 128.31925 408.19069 128.08716 407.34375 127.9375 C 406.48346 127.7378 405.95873 127.62259 405.78125 127.5625 z M 382.90625 151.3125 L 390.34375 155.625 L 377 178.71875 L 436.8125 213.21875 L 431.5625 222.3125 L 371.78125 187.78125 L 358.4375 210.875 L 351 206.5625 L 382.90625 151.3125 z M 534.1875 201.40625 C 536.49531 201.40923 538.80361 201.58326 539.96875 201.875 C 540.94353 202.11907 542.57391 202.48368 543.59375 202.6875 C 552.69168 204.50577 561.24366 208.51963 570.1875 215.1875 C 575.92446 219.46456 582.12998 225.6565 588.21875 233.21875 C 591.25019 236.98381 596.89632 246.08925 599.59375 251.5625 C 600.24295 252.87979 600.94953 253.96875 601.1875 253.96875 C 601.42543 253.96875 602.41789 253.48132 603.375 252.90625 C 604.33207 252.33119 605.39361 251.76427 605.75 251.65625 C 606.10639 251.54824 606.92726 250.70361 607.5625 249.78125 L 608.71875 248.125 L 608.5 245 L 608.28125 241.90625 L 609.3125 241.90625 C 609.88679 241.9091 614.38326 242.12554 619.3125 242.375 C 624.24174 242.62447 630.10284 242.9019 632.3125 243 C 634.52216 243.09811 636.62253 243.236 637 243.3125 C 637.8028 243.47523 637.83688 243.37364 635.75 247.96875 C 634.99031 249.64152 632.89766 254.28687 631.09375 258.28125 C 629.2898 262.27564 627.62016 265.95883 627.375 266.46875 C 627.12986 266.97867 626.42434 268.51521 625.8125 269.875 L 624.6875 272.34375 L 624.03125 271.25 C 622.46841 268.71329 620.57183 266.625 619.84375 266.625 C 618.02352 266.625 608.03125 272.042 608.03125 273.03125 C 608.03125 273.30637 608.266 274.37526 608.53125 275.40625 C 609.9709 281.00218 610.5 283.50217 610.5 284.4375 C 610.5 284.88277 610.65412 285.76037 610.8125 286.375 C 611.16404 287.73925 611.94259 294.36977 612.40625 299.96875 C 612.90109 305.94433 612.04507 315.22201 610.1875 324.25 C 608.44094 332.73827 603.56966 343.61494 598.78125 349.75 C 595.12406 354.43572 593.22914 356.23849 588 359.90625 C 583.83317 362.82893 578.13555 365.23508 573.28125 366.125 C 572.26141 366.31194 570.81858 366.6182 570.09375 366.78125 C 568.4764 367.14497 559.60302 367.11656 558.75 366.75 C 558.41006 366.60392 557.57406 366.48085 556.90625 366.46875 C 556.2384 366.45679 555.27198 366.31318 554.75 366.15625 C 554.228 365.99932 553.02861 365.70017 552.09375 365.5 C 549.28313 364.89829 544.44639 363.08781 540.5 361.15625 C 536.40823 359.15353 533.80121 357.5568 529.875 354.625 C 528.44932 353.56041 526.65898 352.20548 525.875 351.625 C 523.54837 349.9023 515.35597 341.52661 512.5 337.9375 C 511.0415 336.10463 508.61749 332.7465 507.125 330.5 C 505.6325 328.2535 504.16751 326.05803 503.875 325.625 C 503.58252 325.19197 502.35589 323.0253 501.125 320.78125 C 499.57613 317.95749 498.7175 316.6875 498.34375 316.6875 C 497.18857 316.6875 490.49882 320.57797 486.59375 323.53125 C 482.88971 326.33248 479.94453 328.117 478.96875 328.125 C 477.73029 328.13538 468.69744 315.24001 469.46875 314.5625 C 469.62104 314.42871 471.61161 313.06015 473.90625 311.53125 C 485.57752 303.75486 491.30838 299.78737 491.5625 299.3125 C 491.73291 298.99588 491.73254 298.52294 491.5625 298.09375 C 491.40718 297.7016 491.03398 296.5511 490.75 295.53125 C 490.46605 294.51141 490.1382 293.33118 490 292.90625 C 489.76927 292.19672 489.55186 291.2378 488.6875 286.875 C 488.51913 286.02513 488.25807 284.80129 488.09375 284.15625 C 487.78823 282.9571 487.44697 280.59327 486.8125 275.125 C 486.36716 271.28839 486.36445 257.56023 486.8125 253.8125 C 487.30709 249.67565 487.75174 247.15728 488.3125 245.125 C 488.58879 244.12366 488.92222 242.6372 489.0625 241.84375 C 489.34224 240.26151 490.86026 235.69245 492.0625 232.78125 C 494.0477 227.97419 496.88444 223.0587 500.1875 218.71875 C 501.97652 216.36815 507.25148 211.11504 508.78125 210.15625 C 509.24126 209.86794 510.10403 209.25319 510.71875 208.78125 C 513.68158 206.50655 520.40815 203.63107 525.0625 202.65625 C 526.08234 202.44265 527.62399 202.07966 528.5 201.84375 C 529.57258 201.55489 531.87969 201.40327 534.1875 201.40625 z M 346.125 215.03125 L 353.5625 219.3125 L 329.375 261.21875 L 350.9375 273.6875 L 373.46875 234.625 L 380.84375 238.875 L 358.28125 277.90625 L 381.71875 291.4375 L 407.0625 247.59375 L 414.5 251.875 L 383.90625 304.875 L 316.65625 266.03125 L 346.125 215.03125 z M 538 221.4375 C 535.95488 221.45669 533.92783 221.63814 533.5625 221.96875 C 533.28854 222.2167 532.62224 222.4375 532.09375 222.4375 C 530.67444 222.4375 527.16107 223.31201 525.8125 224 C 525.16515 224.33026 524.46009 224.59375 524.25 224.59375 C 524.03988 224.59375 523.35403 224.91702 522.75 225.3125 C 522.14595 225.70799 521.04539 226.44062 520.28125 226.9375 C 516.67122 229.28487 513.79897 231.8459 512.125 234.1875 C 508.04041 239.90108 506.50688 242.52706 505.25 246.0625 C 503.07517 252.17995 501.83226 257.03567 501.53125 260.53125 C 501.43257 261.67709 501.21483 262.39358 500.9375 262.5 C 500.29176 262.74787 500.29138 276.58875 500.9375 277.125 C 501.20102 277.34369 501.43765 278.28925 501.53125 279.53125 C 501.71418 281.95693 502.27962 285.2667 502.96875 287.9375 C 503.12226 288.53241 503.3409 289.40758 503.4375 289.875 C 503.706 291.17374 504.51668 290.97222 507.6875 288.78125 C 509.24783 287.70308 513.81812 284.59616 517.8125 281.90625 C 521.80689 279.21633 530.20256 273.55139 536.46875 269.3125 C 549.21871 260.68756 548.5603 260.97967 549.90625 263.75 C 550.27694 264.51303 551.10092 265.83885 551.75 266.71875 C 554.17395 270.00462 556.26571 273.66489 557.5 276.8125 C 558.46236 279.26668 558.9148 280.08925 559.375 280.15625 C 559.92241 280.23589 561.75818 279.16087 570.8125 273.40625 C 572.17229 272.54202 576.66038 269.70599 580.8125 267.09375 C 584.96465 264.4815 588.50689 262.11061 588.65625 261.84375 C 588.84458 261.5072 588.64046 260.87271 588 259.75 C 587.49215 258.85977 586.62329 257.3319 586.09375 256.34375 C 584.33671 253.06502 580.97275 247.92627 579 245.5625 C 578.57506 245.05334 577.60864 243.87881 576.84375 242.9375 C 575.11503 240.81002 570.76355 236.45806 567.96875 234.0625 C 563.01308 229.81478 557.68487 226.60404 552.4375 224.6875 C 547.97531 223.05773 547.04681 222.79075 544.9375 222.5625 C 543.87352 222.44736 542.75638 222.15717 542.46875 221.90625 C 542.09764 221.58257 540.04512 221.41831 538 221.4375 z M 594.84375 280.53125 C 594.1616 280.53125 592.62464 281.32546 585.625 285.40625 C 584.60515 286.00082 582.91141 286.98249 581.84375 287.59375 C 580.04287 288.62482 571.01289 293.85001 562.0625 299.03125 C 559.97618 300.239 557.94196 301.44964 557.53125 301.71875 C 556.80265 302.19615 556.75706 302.18499 556.15625 301.03125 C 555.52388 299.81688 549.06018 293.50127 546 291.125 C 545.0564 290.39227 543.97774 289.8105 543.625 289.8125 C 543.11134 289.81568 535.17038 294.29717 530.625 297.15625 C 530.11508 297.47699 527.96842 298.75695 525.84375 300 C 513.23018 307.37959 510.6875 308.9854 510.6875 309.625 C 510.6875 310.22241 512.77219 314.12398 514.78125 317.3125 C 515.26318 318.07738 516.03356 319.31449 516.5 320.0625 C 517.38244 321.47767 519.26668 324.00383 521.5625 326.84375 C 523.3705 329.08027 530.06046 335.77221 531.75 337.03125 C 532.49844 337.58901 533.57472 338.41292 534.15625 338.875 C 539.58123 343.18566 550.52888 347.90625 555.09375 347.90625 C 555.69002 347.90625 556.38828 348.10703 556.65625 348.375 C 557.06088 348.7795 557.81659 348.86505 561.125 348.78125 C 563.62506 348.71793 565.20573 348.56114 565.34375 348.34375 C 565.46471 348.15323 566.03009 347.9102 566.625 347.8125 C 570.61719 347.15668 571.87233 346.82642 573.28125 346.03125 C 574.15535 345.53792 575.0669 345.125 575.3125 345.125 C 575.85419 345.125 579.92729 342.61474 581.5625 341.28125 C 584.07852 339.22938 587.35145 335.61126 588.5625 333.53125 C 588.95838 332.85135 589.43858 332.16997 589.625 332 C 589.99127 331.66599 592.76153 325.86616 593.78125 323.3125 C 594.72995 320.9367 595.36335 319.05191 595.71875 317.40625 C 595.89537 316.58837 596.17579 315.29613 596.34375 314.53125 C 597.17551 310.74303 597.3019 309.82906 597.4375 307.28125 C 597.53331 305.48132 597.74288 304.38212 598.03125 304.09375 C 598.65431 303.46936 598.65539 297.0161 598.03125 296.125 C 597.77703 295.76208 597.529 294.38546 597.4375 292.875 C 597.25998 289.94445 596.83067 286.91701 596.3125 284.84375 C 596.12133 284.07887 595.88065 282.80737 595.78125 282 C 595.62015 280.69101 595.52859 280.53125 594.84375 280.53125 z M 313.78125 290 C 314.11298 289.99599 314.44698 290.01326 314.78125 290.03125 C 317.44202 290.12525 320.19911 291.00315 323.0625 292.65625 C 324.93964 293.7401 326.56412 295.00404 327.90625 296.5 C 329.26678 297.9643 330.31897 299.65974 331.0625 301.53125 C 331.79259 303.35273 332.16928 305.33929 332.21875 307.53125 C 332.25475 309.67316 331.90973 311.96788 331.15625 314.375 C 333.03576 311.85442 335.03963 309.81663 337.15625 308.28125 C 339.29125 306.71418 341.44757 305.63587 343.6875 305.0625 C 345.92743 304.48928 348.23107 304.37971 350.5625 304.75 C 352.8621 305.10207 355.11721 305.92013 357.3125 307.1875 C 360.71676 309.15303 363.22848 311.51778 364.875 314.25 C 366.48967 316.96398 367.40201 319.89069 367.625 323.03125 C 367.81613 326.15355 367.40171 329.38651 366.375 332.78125 C 365.34827 336.17607 363.87908 339.53496 361.96875 342.84375 L 346.21875 370.15625 L 278.96875 331.3125 L 293.09375 306.90625 C 295.24294 303.1839 297.45506 300.0285 299.78125 297.46875 C 302.07572 294.8908 304.48817 292.98355 307 291.71875 C 309.1979 290.61221 311.45912 290.0281 313.78125 290 z M 312.4375 300.65625 C 311.22627 300.73244 310.05941 301.0632 308.9375 301.65625 C 305.94581 303.23787 303.09362 306.3851 300.375 311.09375 L 291.53125 326.4375 L 312.8125 338.71875 L 321.65625 323.40625 C 323.19926 320.73379 324.25618 318.32677 324.8125 316.1875 C 325.33704 314.02999 325.44946 312.10274 325.15625 310.40625 C 324.83126 308.69153 324.13669 307.17397 323.0625 305.875 C 321.98835 304.57616 320.59307 303.42949 318.875 302.4375 C 316.60815 301.12877 314.45622 300.52926 312.4375 300.65625 z M 345.125 314.03125 C 343.18881 313.93155 341.33069 314.33761 339.53125 315.25 C 337.73183 316.16252 336.0144 317.53295 334.375 319.34375 C 332.754 321.12284 331.21952 323.29854 329.75 325.84375 L 319.9375 342.8125 L 344.1875 356.8125 L 354.40625 339.125 C 355.74715 336.80249 356.79253 334.53623 357.53125 332.375 C 358.28831 330.18206 358.58372 328.10726 358.4375 326.15625 C 358.30961 324.17354 357.6628 322.33889 356.53125 320.625 C 355.39968 318.91123 353.6674 317.37772 351.28125 316 C 349.14959 314.76936 347.07955 314.09926 345.125 314.03125 z M 190.71875 367.78125 C 190.90373 367.7801 191.09156 367.8142 191.25 367.875 C 192.25718 368.26149 191.51045 371.2879 189.875 373.5 C 189.28544 374.2974 189.25921 374.5123 189.59375 375.4375 C 189.92655 376.3578 189.87488 376.70845 189.1875 378.34375 C 188.7595 379.36195 188.33531 380.9001 188.21875 381.75 C 188.10219 382.5999 187.72763 384.01625 187.40625 384.90625 C 186.96665 386.12355 186.897 386.7128 187.125 387.3125 C 187.29168 387.7509 187.4375 388.81315 187.4375 389.65625 C 187.4375 391.04335 187.36164 391.2081 186.59375 391.5 C 184.98324 392.1123 183.75376 393.30315 183.40625 394.59375 C 183.05879 395.88405 182.93433 396.02995 180.65625 397.84375 C 179.5837 398.69805 179.11819 398.9074 178.5 398.75 C 176.1699 398.1569 175.76026 398.18875 174.875 399.09375 C 173.40743 400.59415 172.19046 401.375 171.34375 401.375 C 170.89697 401.375 169.67767 400.9474 168.625 400.4375 C 167.57233 399.9276 166.52441 399.5 166.28125 399.5 C 165.75757 399.5 163.76712 402.39515 163.46875 403.59375 C 163.18214 404.74515 162.87509 404.90745 160.34375 405.34375 C 157.35108 405.85955 143.09685 405.6953 141.46875 405.125 C 140.79409 404.8846 139.71889 404.80455 138.90625 404.90625 C 138.14137 405.00205 136.60537 405.149 135.5 405.25 L 133.5 405.4375 L 132.5 404.1875 C 131.94812 403.5008 131.5 402.8275 131.5 402.6875 C 131.5 402.5476 131.21347 401.91285 130.875 401.28125 C 130.53653 400.64975 130.11162 399.49575 129.9375 398.71875 C 129.6326 397.35825 129.66492 397.28655 130.5625 396.53125 C 131.42722 395.80365 131.49969 395.5975 131.5 393.6875 C 131.50024 392.5552 131.32356 389.4709 131.125 386.8125 C 130.83404 382.9169 130.86535 381.7777 131.1875 381 C 131.6894 379.7883 132.7097 379.50815 134.21875 380.15625 C 134.84563 380.42555 136.34143 380.73615 137.53125 380.84375 C 138.72107 380.95135 140.28693 381.30635 141.03125 381.65625 C 141.80434 382.01965 143.47255 382.39745 144.90625 382.53125 C 147.88621 382.80945 148.20228 382.93445 151.75 384.96875 C 154.62257 386.61575 155.89447 386.865 157.65625 386.1875 C 158.13474 386.0035 159.71147 385.65405 161.15625 385.40625 C 164.51505 384.83015 170.0917 383.00935 172.28125 381.78125 C 173.2161 381.25695 175.10896 379.9509 176.46875 378.875 C 178.32346 377.4075 179.47699 376.76535 181.0625 376.28125 C 183.04662 375.67565 183.18738 375.5521 183.71875 374.3125 C 184.08079 373.4679 184.76915 372.6622 185.625 372.0625 C 187.37788 370.8342 189.59375 368.75348 189.59375 368.34375 C 189.59375 368.01958 190.16382 367.78469 190.71875 367.78125 z "
       transform="translate(0,629.36218)"
       id="path2919" />
  </g>
</svg>
