<?xml version="1.0" encoding="UTF-8" standalone="no"?>
<!-- Created with Inkscape (http://www.inkscape.org/) -->

<svg
   xmlns:dc="http://purl.org/dc/elements/1.1/"
   xmlns:cc="http://creativecommons.org/ns#"
   xmlns:rdf="http://www.w3.org/1999/02/22-rdf-syntax-ns#"
   xmlns:svg="http://www.w3.org/2000/svg"
   xmlns="http://www.w3.org/2000/svg"
   xmlns:sodipodi="http://sodipodi.sourceforge.net/DTD/sodipodi-0.dtd"
   xmlns:inkscape="http://www.inkscape.org/namespaces/inkscape"
   width="500"
   height="362"
   id="svg2"
   sodipodi:version="0.32"
   inkscape:version="0.48.3.1 r9886"
   sodipodi:docname="okupa.svg"
   inkscape:output_extension="org.inkscape.output.svg.inkscape"
   version="1.1">
  <defs
     id="defs4" />
  <sodipodi:namedview
     id="base"
     pagecolor="#ffffff"
     bordercolor="#666666"
     borderopacity="1.0"
     inkscape:pageopacity="0.0"
     inkscape:pageshadow="2"
     inkscape:zoom="1.6127867"
     inkscape:cx="225.8681"
     inkscape:cy="264.82033"
     inkscape:document-units="px"
     inkscape:current-layer="layer1"
     inkscape:window-width="1398"
     inkscape:window-height="1029"
     inkscape:window-x="0"
     inkscape:window-y="19"
     showgrid="false"
     showguides="true"
     inkscape:guide-bbox="true"
     inkscape:window-maximized="0">
    <sodipodi:guide
       orientation="1,0"
       position="500,719.40979"
       id="guide6202" />
    <sodipodi:guide
       orientation="0,1"
       position="559.73172,362.28035"
       id="guide6204" />
  </sodipodi:namedview>
  <metadata
     id="metadata7">
    <rdf:RDF>
      <cc:Work
         rdf:about="">
        <dc:format>image/svg+xml</dc:format>
        <dc:type
           rdf:resource="http://purl.org/dc/dcmitype/StillImage" />
        <dc:title />
      </cc:Work>
    </rdf:RDF>
  </metadata>
  <g
     inkscape:label="Capa 1"
     inkscape:groupmode="layer"
     id="layer1"
     transform="translate(0,-690.36215)">
    <path
       style="color:#000000;fill:#4b4b4b;fill-opacity:0.14900662;fill-rule:nonzero;stroke:none;stroke-width:1;marker:none;visibility:visible;display:inline;overflow:visible;enable-background:accumulate"
       d="m 500,690.23715 -79.3125,35.6875 12.1875,12.1875 -62.125,62.125 C 344.07202,756.99557 295.85558,728.0809 240.78125,728.0809 c -83.97025,0 -152.0625,67.15926 -152.0625,149.96875 0,19.43295 3.738627,37.98945 10.5625,55.03125 L 43.4375,988.92465 19.78125,965.2684 0.25,984.7684 l 23.65625,23.6875 -16.84375,16.8438 19.5,19.5 16.84375,-16.8438 23.65625,23.6563 19.53125,-19.5313 -23.65625,-23.6563 49.6875,-49.68745 c 27.0167,41.64065 74.31274,69.25005 128.15625,69.25005 83.97036,0 152.03125,-67.12805 152.03125,-149.93755 0,-18.13903 -3.26546,-35.53071 -9.25,-51.625 l 68.8125,-68.8125 11.9375,11.9375 L 500,690.23715 z M 240.78125,758.3934 c 46.7405,0 87.27929,26.07883 107.53125,64.28125 l -107.09375,107.09375 36.4375,-136.0625 0.21875,-0.21875 -0.125,-0.125 -19.40625,-19.375 L 123.5,908.8309 c -2.64436,-9.8199 -4.0625,-20.13994 -4.0625,-30.78125 0,-66.07141 54.3462,-119.65625 121.34375,-119.65625 z m -2.15625,74.34375 -36.4375,136.03125 0,0.0313 19.53125,19.5 137.21875,-137.25 c 2.02714,8.67376 3.125,17.71927 3.125,27 0,66.07141 -54.28358,119.59375 -121.28125,119.59375 -45.47677,0 -85.10226,-24.67585 -105.875,-61.1875 L 238.625,832.73715 z"
       id="path10799-8"
       inkscape:connector-curvature="0" />
  </g>
</svg>
