<?xml version="1.0" encoding="UTF-8" standalone="no"?>
<!-- Created with Inkscape (http://www.inkscape.org/) -->

<svg
   xmlns:dc="http://purl.org/dc/elements/1.1/"
   xmlns:cc="http://creativecommons.org/ns#"
   xmlns:rdf="http://www.w3.org/1999/02/22-rdf-syntax-ns#"
   xmlns:svg="http://www.w3.org/2000/svg"
   xmlns="http://www.w3.org/2000/svg"
   xmlns:sodipodi="http://sodipodi.sourceforge.net/DTD/sodipodi-0.dtd"
   xmlns:inkscape="http://www.inkscape.org/namespaces/inkscape"
   width="100"
   height="100"
   id="svg2"
   sodipodi:version="0.32"
   inkscape:version="0.48.3.1 r9886"
   sodipodi:docname="notreturned.svg"
   inkscape:output_extension="org.inkscape.output.svg.inkscape"
   version="1.1">
  <defs
     id="defs4">
    <inkscape:perspective
       sodipodi:type="inkscape:persp3d"
       inkscape:vp_x="0 : 526.18109 : 1"
       inkscape:vp_y="0 : 1000 : 0"
       inkscape:vp_z="744.09448 : 526.18109 : 1"
       inkscape:persp3d-origin="372.04724 : 350.78739 : 1"
       id="perspective3331" />
    <inkscape:perspective
       id="perspective10"
       inkscape:persp3d-origin="372.04724 : 350.78739 : 1"
       inkscape:vp_z="744.09448 : 526.18109 : 1"
       inkscape:vp_y="0 : 1000 : 0"
       inkscape:vp_x="0 : 526.18109 : 1"
       sodipodi:type="inkscape:persp3d" />
  </defs>
  <sodipodi:namedview
     id="base"
     pagecolor="#ffffff"
     bordercolor="#666666"
     borderopacity="1.0"
     inkscape:pageopacity="0.0"
     inkscape:pageshadow="2"
     inkscape:zoom="4.8949467"
     inkscape:cx="52.349362"
     inkscape:cy="50"
     inkscape:document-units="px"
     inkscape:current-layer="layer1"
     inkscape:window-width="1398"
     inkscape:window-height="1029"
     inkscape:window-x="0"
     inkscape:window-y="19"
     showgrid="false"
     showguides="true"
     inkscape:guide-bbox="true"
     inkscape:window-maximized="0"
     inkscape:snap-page="true">
    <sodipodi:guide
       orientation="1,0"
       position="500,719.40979"
       id="guide6202" />
    <sodipodi:guide
       orientation="0,1"
       position="559.73172,362.28035"
       id="guide6204" />
  </sodipodi:namedview>
  <metadata
     id="metadata7">
    <rdf:RDF>
      <cc:Work
         rdf:about="">
        <dc:format>image/svg+xml</dc:format>
        <dc:type
           rdf:resource="http://purl.org/dc/dcmitype/StillImage" />
        <dc:title></dc:title>
      </cc:Work>
    </rdf:RDF>
  </metadata>
  <g
     inkscape:label="Capa 1"
     inkscape:groupmode="layer"
     id="layer1"
     transform="translate(0,-952.36215)">
    <path
       style="color:#000000;fill:#828282;fill-opacity:1;fill-rule:nonzero;stroke:none;stroke-width:1.25000000000000000px;marker:none;visibility:visible;display:inline;overflow:visible;enable-background:accumulate"
       d="M 50 0 C 22.385763 5.5511151e-15 1.2499407e-16 22.385763 0 50 C 0 77.614237 22.385763 100 50 100 C 77.614237 100 100 77.614237 100 50 C 100 22.385763 77.614237 -1.0977236e-14 50 0 z M 50 4.6875 C 75.025403 4.6875 95.3125 24.974597 95.3125 50 C 95.3125 75.025403 75.025403 95.3125 50 95.3125 C 24.974597 95.3125 4.6875 75.025403 4.6875 50 C 4.6875 24.974597 24.974597 4.6875 50 4.6875 z "
       transform="translate(0,952.36215)"
       id="path6237" />
    <path
       style="font-size:111.51595306px;font-style:normal;font-variant:normal;font-weight:normal;font-stretch:normal;text-indent:0;text-align:start;text-decoration:none;line-height:125%;letter-spacing:0px;word-spacing:0px;text-transform:none;direction:ltr;block-progression:tb;writing-mode:lr-tb;text-anchor:start;color:#000000;fill:#828282;fill-opacity:1;fill-rule:nonzero;stroke:none;stroke-width:1px;marker:none;visibility:visible;font-family:Quicksand;-inkscape-font-specification:Quicksand"
       d="m 17.602057,1006.6267 c -0.515765,-0.014 -0.953451,0.1275 -1.34375,0.4063 -1.263856,1.0408 -1.454635,2.2944 -0.5625,3.7812 l 1.03125,1.4375 1.0625,1.4375 1.03125,1.4375 0.65625,0.875 c 0.170143,0.1388 0.3152,0.3043 0.4375,0.5 l 2,2.6875 1.96875,2.6875 2,2.6875 1.96875,2.6875 1.96875,2.6875 2,2.6875 1.96875,2.6875 1.96875,2.6875 1.96875,-2.6875 41.871527,-56.75324 1.0625,-1.4375 c 0.892078,-1.5612 0.631237,-2.81475 -0.78125,-3.78127 -0.520455,-0.37165 -1.162857,-0.49239 -1.90625,-0.34375 -0.669141,0.0744 -1.241481,0.43655 -1.6875,1.03125 l -40.527777,55.19071 -15.84375,-21.4999 c -0.371732,-0.5947 -0.963478,-0.9569 -1.78125,-1.0313 -0.185862,-0.037 -0.359328,-0.058 -0.53125,-0.063 z"
       id="path7253-5"
       inkscape:connector-curvature="0"
       sodipodi:nodetypes="cccccccccccccccccccccccccc" />
  </g>
</svg>
